<svg xmlns="http://www.w3.org/2000/svg" version="1.1" viewBox="0.00 0.00 1000.00 666.00" width="1000.00" height="666.00">
<g stroke-width="2.00" fill="none" stroke-linecap="butt">
<path stroke="#f4d984" d="&#10;  M 684.48 254.77&#10;  A 0.33 0.33 0.0 0 0 684.79 255.21&#10;  L 697.85 255.21&#10;  A 0.33 0.33 0.0 0 0 698.16 254.98&#10;  L 704.46 234.85&#10;  A 0.33 0.33 0.0 0 1 705.09 234.85&#10;  L 711.15 254.77&#10;  A 0.33 0.33 0.0 0 0 711.46 255.00&#10;  L 724.15 255.00&#10;  A 0.33 0.33 0.0 0 0 724.46 254.56&#10;  L 704.90 199.15&#10;  A 0.33 0.33 0.0 0 0 704.28 199.15&#10;  L 684.48 254.77"/>
<path stroke="#8690a2" d="&#10;  M 439.02 280.78&#10;  L 443.98 268.81&#10;  A 1.30 1.30 0.0 0 0 443.38 267.16&#10;  Q 431.76 261.07 417.96 263.28&#10;  Q 410.22 264.51 403.95 269.37&#10;  C 387.06 282.43 384.12 306.90 398.87 322.89&#10;  C 410.40 335.40 428.47 336.54 443.08 329.18&#10;  A 1.23 1.22 66.6 0 0 443.68 327.66&#10;  L 439.33 316.04&#10;  A 0.49 0.49 0.0 0 0 438.62 315.79&#10;  C 430.75 320.45 420.35 321.62 412.91 316.15&#10;  C 402.95 308.81 402.36 291.39 410.35 282.46&#10;  C 416.06 276.07 425.14 274.32 432.80 277.89&#10;  Q 435.46 279.12 438.21 281.02&#10;  A 0.55 0.54 -61.3 0 0 439.02 280.78"/>
<path stroke="#8690a2" d="&#10;  M 558.16 325.67&#10;  C 566.64 332.84 580.16 335.38 590.38 332.18&#10;  C 601.94 328.56 607.61 318.08 604.89 306.64&#10;  C 602.22 295.40 591.15 292.77 581.02 289.17&#10;  C 577.13 287.78 573.49 284.58 575.89 280.26&#10;  C 579.72 273.38 589.99 276.43 595.23 280.12&#10;  A 0.99 0.98 32.7 0 0 596.65 279.81&#10;  L 602.36 269.91&#10;  A 1.05 1.03 33.4 0 0 602.07 268.54&#10;  Q 595.51 263.78 587.56 262.95&#10;  C 573.32 261.47 560.56 267.26 560.11 283.19&#10;  C 559.68 298.64 572.33 301.42 584.09 305.73&#10;  C 587.91 307.13 590.85 310.67 589.39 314.61&#10;  C 585.92 323.97 571.33 318.38 565.86 314.78&#10;  A 0.68 0.67 34.0 0 0 564.94 314.95&#10;  L 558.05 324.76&#10;  A 0.68 0.68 0.0 0 0 558.16 325.67"/>
<path stroke="#8690a2" d="&#10;  M 608.41 325.68&#10;  C 616.85 332.91 630.37 335.53 640.62 332.39&#10;  C 652.22 328.84 657.96 318.38 655.31 306.91&#10;  C 652.70 295.64 641.64 292.94 631.52 289.28&#10;  C 627.63 287.86 624.01 284.63 626.44 280.32&#10;  C 630.31 273.46 640.57 276.58 645.80 280.30&#10;  A 0.99 0.99 0.0 0 0 647.22 280.00&#10;  L 653.00 270.12&#10;  A 1.05 1.04 33.7 0 0 652.72 268.75&#10;  Q 646.18 263.95 638.22 263.07&#10;  C 623.98 261.50 611.17 267.22 610.62 283.16&#10;  C 610.09 298.63 622.74 301.49 634.49 305.87&#10;  C 638.30 307.30 641.23 310.86 639.74 314.79&#10;  C 636.21 324.14 621.64 318.46 616.18 314.82&#10;  A 0.68 0.67 34.4 0 0 615.26 314.99&#10;  L 608.30 324.76&#10;  A 0.68 0.68 0.0 0 0 608.41 325.68"/>
<path stroke="#8690a2" d="&#10;  M 753.52 279.91&#10;  Q 757.19 274.25 761.72 270.18&#10;  A 0.51 0.51 0.0 0 0 761.68 269.39&#10;  C 753.07 263.08 742.63 261.71 732.31 263.30&#10;  C 725.24 264.40 718.18 269.55 715.76 276.53&#10;  Q 714.58 279.92 714.93 286.03&#10;  C 715.66 298.95 728.65 302.22 738.52 305.50&#10;  C 743.70 307.22 747.55 312.03 743.44 316.85&#10;  C 741.80 318.77 738.06 319.91 735.96 319.80&#10;  Q 727.29 319.35 720.22 314.43&#10;  A 0.45 0.45 0.0 0 0 719.60 314.54&#10;  L 712.13 325.18&#10;  A 0.33 0.33 0.0 0 0 712.20 325.63&#10;  Q 723.49 334.07 737.65 333.57&#10;  C 750.30 333.12 761.13 325.14 760.83 311.56&#10;  C 760.61 301.89 754.53 296.11 746.19 293.08&#10;  Q 734.76 288.92 734.20 288.60&#10;  C 731.91 287.30 730.19 286.28 730.01 283.42&#10;  C 729.70 278.49 733.89 276.48 738.29 276.28&#10;  Q 745.65 275.94 752.17 280.19&#10;  A 0.97 0.97 0.0 0 0 753.52 279.91"/>
<path stroke="#8690a2" d="&#10;  M 205.40 268.93&#10;  C 189.62 257.36 160.73 261.52 162.89 286.68&#10;  C 164.07 300.41 177.48 302.33 187.62 306.35&#10;  C 191.43 307.86 194.08 311.76 192.01 315.81&#10;  C 187.98 323.72 174.25 318.74 168.98 315.04&#10;  A 0.67 0.67 0.0 0 0 168.04 315.20&#10;  L 161.03 325.18&#10;  A 0.73 0.72 -53.4 0 0 161.17 326.16&#10;  C 170.05 333.23 184.22 336.08 194.59 331.89&#10;  Q 210.29 325.54 208.05 308.61&#10;  C 206.47 296.61 194.87 293.40 185.32 290.19&#10;  Q 182.22 289.15 179.30 287.11&#10;  A 1.80 1.77 -84.1 0 1 178.67 286.32&#10;  Q 176.93 281.96 179.07 279.56&#10;  C 184.10 273.93 192.81 276.81 198.20 280.51&#10;  A 0.99 0.99 0.0 0 0 199.62 280.19&#10;  L 205.59 269.84&#10;  A 0.69 0.69 0.0 0 0 205.40 268.93"/>
<path stroke="#8690a2" d="&#10;  M 355.39 305.49&#10;  Q 370.64 298.40 368.90 282.46&#10;  C 367.53 269.97 356.84 263.73 345.24 263.87&#10;  Q 336.81 263.98 320.57 263.91&#10;  A 0.45 0.45 0.0 0 0 320.12 264.36&#10;  L 320.12 331.75&#10;  A 0.59 0.58 90.0 0 0 320.70 332.34&#10;  L 334.88 332.34&#10;  A 0.37 0.37 0.0 0 0 335.25 331.97&#10;  L 335.25 308.46&#10;  A 0.34 0.34 0.0 0 1 335.59 308.12&#10;  L 339.74 308.12&#10;  A 1.12 1.11 -26.1 0 1 340.42 308.35&#10;  Q 341.90 309.51 342.84 310.92&#10;  Q 349.30 320.61 354.36 331.26&#10;  A 1.91 1.91 0.0 0 0 356.08 332.34&#10;  L 371.75 332.34&#10;  A 0.38 0.38 0.0 0 0 372.08 331.77&#10;  C 366.72 322.53 361.66 313.67 355.25 306.16&#10;  A 0.43 0.43 0.0 0 1 355.39 305.49"/>
<path stroke="#8690a2" d="&#10;  M 524.20 318.07&#10;  Q 533.66 318.10 535.51 318.18&#10;  A 1.42 1.42 0.0 0 1 536.79 319.12&#10;  L 541.28 331.86&#10;  A 0.89 0.89 0.0 0 0 542.12 332.45&#10;  L 556.54 332.45&#10;  A 0.51 0.51 0.0 0 0 557.02 331.75&#10;  L 531.95 264.70&#10;  A 0.97 0.95 -8.8 0 0 531.08 264.08&#10;  Q 527.96 263.97 524.38 263.96&#10;  Q 520.80 263.95 517.67 264.03&#10;  A 0.97 0.95 9.2 0 0 516.80 264.65&#10;  L 491.29 331.53&#10;  A 0.51 0.51 0.0 0 0 491.76 332.24&#10;  L 506.18 332.33&#10;  A 0.89 0.89 0.0 0 0 507.03 331.75&#10;  L 511.60 319.04&#10;  A 1.42 1.42 0.0 0 1 512.89 318.10&#10;  Q 514.73 318.04 524.20 318.07"/>
<path stroke="#8690a2" d="&#10;  M 704.73 276.50&#10;  A 0.34 0.34 0.0 0 0 705.07 276.16&#10;  L 705.07 264.28&#10;  A 0.34 0.34 0.0 0 0 704.73 263.94&#10;  L 663.17 263.94&#10;  A 0.34 0.34 0.0 0 0 662.83 264.28&#10;  L 662.83 332.01&#10;  A 0.34 0.34 0.0 0 0 663.17 332.35&#10;  L 705.79 332.35&#10;  A 0.34 0.34 0.0 0 0 706.13 332.01&#10;  L 706.13 319.52&#10;  A 0.34 0.34 0.0 0 0 705.79 319.18&#10;  L 678.27 319.18&#10;  A 0.34 0.34 0.0 0 1 677.93 318.84&#10;  L 677.93 304.16&#10;  A 0.34 0.34 0.0 0 1 678.27 303.82&#10;  L 702.32 303.82&#10;  A 0.34 0.34 0.0 0 0 702.66 303.48&#10;  L 702.66 291.47&#10;  A 0.34 0.34 0.0 0 0 702.32 291.13&#10;  L 678.17 291.13&#10;  A 0.34 0.34 0.0 0 1 677.83 290.79&#10;  L 677.83 276.84&#10;  A 0.34 0.34 0.0 0 1 678.17 276.50&#10;  L 704.73 276.50"/>
<path stroke="#8690a2" d="&#10;  M 234.48 332.35&#10;  Q 240.80 332.33 241.65 332.28&#10;  A 0.25 0.25 0.0 0 0 241.89 332.03&#10;  L 241.89 277.44&#10;  A 0.46 0.46 0.0 0 1 242.35 276.98&#10;  L 258.70 276.98&#10;  A 0.49 0.48 -0.0 0 0 259.19 276.50&#10;  L 259.19 264.32&#10;  A 0.42 0.42 0.0 0 0 258.77 263.90&#10;  Q 240.11 263.96 234.27 263.98&#10;  Q 228.43 264.00 209.78 264.05&#10;  A 0.42 0.42 0.0 0 0 209.36 264.47&#10;  L 209.43 276.65&#10;  A 0.49 0.48 -0.4 0 0 209.92 277.13&#10;  L 226.27 277.03&#10;  A 0.46 0.46 0.0 0 1 226.74 277.49&#10;  L 227.07 332.08&#10;  A 0.25 0.25 0.0 0 0 227.31 332.32&#10;  Q 228.16 332.37 234.48 332.35"/>
<path stroke="#8690a2" d="&#10;  M 283.66 318.00&#10;  Q 293.13 318.00 294.98 318.08&#10;  A 1.42 1.42 0.0 0 1 296.26 319.02&#10;  L 300.79 331.76&#10;  A 0.89 0.89 0.0 0 0 301.63 332.34&#10;  L 316.07 332.31&#10;  A 0.52 0.52 0.0 0 0 316.55 331.60&#10;  L 291.27 264.56&#10;  A 0.97 0.95 -9.0 0 0 290.40 263.94&#10;  Q 287.27 263.85 283.69 263.84&#10;  Q 280.11 263.84 276.98 263.93&#10;  A 0.97 0.95 9.1 0 0 276.11 264.55&#10;  L 250.76 331.57&#10;  A 0.52 0.52 0.0 0 0 251.23 332.27&#10;  L 265.67 332.32&#10;  A 0.89 0.89 0.0 0 0 266.51 331.74&#10;  L 271.05 319.00&#10;  A 1.42 1.42 0.0 0 1 272.33 318.07&#10;  Q 274.19 317.99 283.66 318.00"/>
<path stroke="#8690a2" d="&#10;  M 451.38 263.92&#10;  A 0.46 0.46 0.0 0 0 450.92 264.38&#10;  L 450.92 331.89&#10;  A 0.46 0.46 0.0 0 0 451.38 332.35&#10;  L 488.22 332.35&#10;  A 0.46 0.46 0.0 0 0 488.68 331.89&#10;  L 488.68 319.64&#10;  A 0.46 0.46 0.0 0 0 488.22 319.18&#10;  L 466.47 319.18&#10;  A 0.46 0.46 0.0 0 1 466.01 318.72&#10;  L 466.01 264.38&#10;  A 0.46 0.46 0.0 0 0 465.55 263.92&#10;  L 451.38 263.92"/>
<path stroke="#8690a2" d="&#10;  M 765.68 321.04&#10;  L 819.39 278.62&#10;  A 0.25 0.25 0.0 0 0 819.21 278.17&#10;  Q 791.94 280.30 763.98 278.00&#10;  A 1.24 1.23 19.4 0 0 762.88 278.52&#10;  L 756.05 288.25&#10;  A 0.75 0.75 0.0 0 0 756.62 289.43&#10;  L 784.09 291.14&#10;  A 0.15 0.15 0.0 0 1 784.18 291.40&#10;  L 766.57 305.31&#10;  A 1.45 1.45 0.0 0 0 766.01 306.57&#10;  Q 766.50 314.00 765.23 320.76&#10;  A 0.28 0.28 0.0 0 0 765.68 321.04"/>
<path stroke="#f4d984" d="&#10;  M 743.20 338.54&#10;  L 735.50 338.28&#10;  A 0.44 0.44 0.0 0 0 735.06 338.84&#10;  L 741.84 363.07&#10;  A 0.35 0.35 0.0 0 1 741.30 363.46&#10;  Q 723.18 351.18 706.95 339.75&#10;  C 705.17 338.50 704.19 338.50 702.47 339.70&#10;  Q 687.42 350.24 668.04 363.34&#10;  A 0.38 0.37 -9.2 0 1 667.47 362.93&#10;  L 674.32 338.71&#10;  A 0.39 0.39 0.0 0 0 673.93 338.22&#10;  L 666.12 338.53"/>
<path stroke="#8690a2" d="&#10;  M 666.12 338.53&#10;  L 653.89 338.17&#10;  A 0.56 0.54 9.0 0 0 653.35 338.55&#10;  L 628.78 417.08&#10;  A 0.35 0.35 0.0 0 0 629.31 417.47&#10;  L 703.67 365.52&#10;  A 1.09 1.09 0.0 0 1 704.91 365.52&#10;  L 779.39 417.83&#10;  A 0.35 0.35 0.0 0 0 779.93 417.44&#10;  L 755.02 335.53&#10;  A 0.74 0.74 0.0 0 0 753.96 335.10&#10;  Q 748.99 337.77 743.20 338.54"/>
<path stroke="#7b6a26" d="&#10;  M 666.12 338.53&#10;  L 650.21 388.28&#10;  A 0.15 0.15 0.0 0 0 650.44 388.45&#10;  L 703.75 351.20&#10;  A 1.59 1.58 -44.8 0 1 705.56 351.20&#10;  L 758.81 388.60&#10;  A 0.13 0.13 0.0 0 0 759.01 388.45&#10;  L 743.20 338.54"/>
<path stroke="#f4d984" d="&#10;  M 167.36 376.61&#10;  A 0.46 0.45 -10.7 0 0 167.88 376.96&#10;  Q 184.81 374.27 194.26 373.11&#10;  Q 236.64 367.90 277.69 364.68&#10;  Q 361.52 358.11 435.33 356.17&#10;  C 454.49 355.67 472.39 354.78 492.75 355.20&#10;  C 517.06 355.70 528.11 355.50 554.16 355.54&#10;  C 563.69 355.56 576.66 354.99 588.00 355.54&#10;  Q 603.05 356.27 621.18 356.52&#10;  C 626.26 356.60 631.54 357.18 637.38 357.22&#10;  A 0.74 0.74 0.0 0 0 638.06 356.77&#10;  L 642.45 346.18&#10;  A 0.75 0.74 -79.0 0 0 641.76 345.15&#10;  Q 631.74 345.24 611.61 344.52&#10;  Q 596.43 343.98 581.40 343.80&#10;  Q 550.16 343.43 538.75 343.42&#10;  Q 463.14 343.34 393.51 347.22&#10;  Q 329.48 350.79 308.44 353.26&#10;  Q 304.04 353.78 288.29 355.25&#10;  C 268.39 357.11 248.24 359.94 229.00 362.77&#10;  C 208.22 365.83 188.34 369.98 167.68 376.03&#10;  A 0.48 0.47 -15.0 0 0 167.35 376.59&#10;  L 167.36 376.61"/>
<path stroke="#8690a2" d="&#10;  M 335.26 276.73&#10;  L 335.22 294.57&#10;  A 0.42 0.42 0.0 0 0 335.64 294.99&#10;  L 344.49 295.01&#10;  A 9.83 8.88 0.1 0 0 354.34 286.15&#10;  L 354.34 285.23&#10;  A 9.83 8.88 0.1 0 0 344.53 276.33&#10;  L 335.68 276.31&#10;  A 0.42 0.42 0.0 0 0 335.26 276.73"/>
<path stroke="#8690a2" d="&#10;  M 524.21 305.47&#10;  Q 531.66 305.53 531.71 305.52&#10;  A 0.50 0.50 0.0 0 0 532.05 304.88&#10;  L 524.64 282.38&#10;  A 0.19 0.15 86.5 0 0 524.52 282.26&#10;  Q 524.46 282.24 524.43 282.24&#10;  Q 524.37 282.24 524.31 282.26&#10;  A 0.19 0.15 -85.5 0 0 524.19 282.38&#10;  L 516.39 304.74&#10;  A 0.50 0.50 0.0 0 0 516.71 305.38&#10;  Q 516.77 305.40 524.21 305.47"/>
<path stroke="#8690a2" d="&#10;  M 283.59 305.47&#10;  Q 291.04 305.51 291.10 305.49&#10;  A 0.50 0.50 0.0 0 0 291.43 304.85&#10;  L 283.93 282.38&#10;  A 0.19 0.15 86.2 0 0 283.81 282.26&#10;  Q 283.75 282.24 283.72 282.24&#10;  Q 283.66 282.24 283.60 282.26&#10;  A 0.19 0.15 -85.7 0 0 283.48 282.38&#10;  L 275.76 304.77&#10;  A 0.50 0.50 0.0 0 0 276.09 305.42&#10;  Q 276.14 305.43 283.59 305.47"/>
</g>
<path fill="#ffffff" d="&#10;  M 1000.00 0.00&#10;  L 1000.00 666.00&#10;  L 0.00 666.00&#10;  L 0.00 0.00&#10;  L 1000.00 0.00&#10;  Z&#10;  M 684.48 254.77&#10;  A 0.33 0.33 0.0 0 0 684.79 255.21&#10;  L 697.85 255.21&#10;  A 0.33 0.33 0.0 0 0 698.16 254.98&#10;  L 704.46 234.85&#10;  A 0.33 0.33 0.0 0 1 705.09 234.85&#10;  L 711.15 254.77&#10;  A 0.33 0.33 0.0 0 0 711.46 255.00&#10;  L 724.15 255.00&#10;  A 0.33 0.33 0.0 0 0 724.46 254.56&#10;  L 704.90 199.15&#10;  A 0.33 0.33 0.0 0 0 704.28 199.15&#10;  L 684.48 254.77&#10;  Z&#10;  M 439.02 280.78&#10;  L 443.98 268.81&#10;  A 1.30 1.30 0.0 0 0 443.38 267.16&#10;  Q 431.76 261.07 417.96 263.28&#10;  Q 410.22 264.51 403.95 269.37&#10;  C 387.06 282.43 384.12 306.90 398.87 322.89&#10;  C 410.40 335.40 428.47 336.54 443.08 329.18&#10;  A 1.23 1.22 66.6 0 0 443.68 327.66&#10;  L 439.33 316.04&#10;  A 0.49 0.49 0.0 0 0 438.62 315.79&#10;  C 430.75 320.45 420.35 321.62 412.91 316.15&#10;  C 402.95 308.81 402.36 291.39 410.35 282.46&#10;  C 416.06 276.07 425.14 274.32 432.80 277.89&#10;  Q 435.46 279.12 438.21 281.02&#10;  A 0.55 0.54 -61.3 0 0 439.02 280.78&#10;  Z&#10;  M 558.16 325.67&#10;  C 566.64 332.84 580.16 335.38 590.38 332.18&#10;  C 601.94 328.56 607.61 318.08 604.89 306.64&#10;  C 602.22 295.40 591.15 292.77 581.02 289.17&#10;  C 577.13 287.78 573.49 284.58 575.89 280.26&#10;  C 579.72 273.38 589.99 276.43 595.23 280.12&#10;  A 0.99 0.98 32.7 0 0 596.65 279.81&#10;  L 602.36 269.91&#10;  A 1.05 1.03 33.4 0 0 602.07 268.54&#10;  Q 595.51 263.78 587.56 262.95&#10;  C 573.32 261.47 560.56 267.26 560.11 283.19&#10;  C 559.68 298.64 572.33 301.42 584.09 305.73&#10;  C 587.91 307.13 590.85 310.67 589.39 314.61&#10;  C 585.92 323.97 571.33 318.38 565.86 314.78&#10;  A 0.68 0.67 34.0 0 0 564.94 314.95&#10;  L 558.05 324.76&#10;  A 0.68 0.68 0.0 0 0 558.16 325.67&#10;  Z&#10;  M 608.41 325.68&#10;  C 616.85 332.91 630.37 335.53 640.62 332.39&#10;  C 652.22 328.84 657.96 318.38 655.31 306.91&#10;  C 652.70 295.64 641.64 292.94 631.52 289.28&#10;  C 627.63 287.86 624.01 284.63 626.44 280.32&#10;  C 630.31 273.46 640.57 276.58 645.80 280.30&#10;  A 0.99 0.99 0.0 0 0 647.22 280.00&#10;  L 653.00 270.12&#10;  A 1.05 1.04 33.7 0 0 652.72 268.75&#10;  Q 646.18 263.95 638.22 263.07&#10;  C 623.98 261.50 611.17 267.22 610.62 283.16&#10;  C 610.09 298.63 622.74 301.49 634.49 305.87&#10;  C 638.30 307.30 641.23 310.86 639.74 314.79&#10;  C 636.21 324.14 621.64 318.46 616.18 314.82&#10;  A 0.68 0.67 34.4 0 0 615.26 314.99&#10;  L 608.30 324.76&#10;  A 0.68 0.68 0.0 0 0 608.41 325.68&#10;  Z&#10;  M 753.52 279.91&#10;  Q 757.19 274.25 761.72 270.18&#10;  A 0.51 0.51 0.0 0 0 761.68 269.39&#10;  C 753.07 263.08 742.63 261.71 732.31 263.30&#10;  C 725.24 264.40 718.18 269.55 715.76 276.53&#10;  Q 714.58 279.92 714.93 286.03&#10;  C 715.66 298.95 728.65 302.22 738.52 305.50&#10;  C 743.70 307.22 747.55 312.03 743.44 316.85&#10;  C 741.80 318.77 738.06 319.91 735.96 319.80&#10;  Q 727.29 319.35 720.22 314.43&#10;  A 0.45 0.45 0.0 0 0 719.60 314.54&#10;  L 712.13 325.18&#10;  A 0.33 0.33 0.0 0 0 712.20 325.63&#10;  Q 723.49 334.07 737.65 333.57&#10;  C 750.30 333.12 761.13 325.14 760.83 311.56&#10;  C 760.61 301.89 754.53 296.11 746.19 293.08&#10;  Q 734.76 288.92 734.20 288.60&#10;  C 731.91 287.30 730.19 286.28 730.01 283.42&#10;  C 729.70 278.49 733.89 276.48 738.29 276.28&#10;  Q 745.65 275.94 752.17 280.19&#10;  A 0.97 0.97 0.0 0 0 753.52 279.91&#10;  Z&#10;  M 205.40 268.93&#10;  C 189.62 257.36 160.73 261.52 162.89 286.68&#10;  C 164.07 300.41 177.48 302.33 187.62 306.35&#10;  C 191.43 307.86 194.08 311.76 192.01 315.81&#10;  C 187.98 323.72 174.25 318.74 168.98 315.04&#10;  A 0.67 0.67 0.0 0 0 168.04 315.20&#10;  L 161.03 325.18&#10;  A 0.73 0.72 -53.4 0 0 161.17 326.16&#10;  C 170.05 333.23 184.22 336.08 194.59 331.89&#10;  Q 210.29 325.54 208.05 308.61&#10;  C 206.47 296.61 194.87 293.40 185.32 290.19&#10;  Q 182.22 289.15 179.30 287.11&#10;  A 1.80 1.77 -84.1 0 1 178.67 286.32&#10;  Q 176.93 281.96 179.07 279.56&#10;  C 184.10 273.93 192.81 276.81 198.20 280.51&#10;  A 0.99 0.99 0.0 0 0 199.62 280.19&#10;  L 205.59 269.84&#10;  A 0.69 0.69 0.0 0 0 205.40 268.93&#10;  Z&#10;  M 355.39 305.49&#10;  Q 370.64 298.40 368.90 282.46&#10;  C 367.53 269.97 356.84 263.73 345.24 263.87&#10;  Q 336.81 263.98 320.57 263.91&#10;  A 0.45 0.45 0.0 0 0 320.12 264.36&#10;  L 320.12 331.75&#10;  A 0.59 0.58 90.0 0 0 320.70 332.34&#10;  L 334.88 332.34&#10;  A 0.37 0.37 0.0 0 0 335.25 331.97&#10;  L 335.25 308.46&#10;  A 0.34 0.34 0.0 0 1 335.59 308.12&#10;  L 339.74 308.12&#10;  A 1.12 1.11 -26.1 0 1 340.42 308.35&#10;  Q 341.90 309.51 342.84 310.92&#10;  Q 349.30 320.61 354.36 331.26&#10;  A 1.91 1.91 0.0 0 0 356.08 332.34&#10;  L 371.75 332.34&#10;  A 0.38 0.38 0.0 0 0 372.08 331.77&#10;  C 366.72 322.53 361.66 313.67 355.25 306.16&#10;  A 0.43 0.43 0.0 0 1 355.39 305.49&#10;  Z&#10;  M 524.20 318.07&#10;  Q 533.66 318.10 535.51 318.18&#10;  A 1.42 1.42 0.0 0 1 536.79 319.12&#10;  L 541.28 331.86&#10;  A 0.89 0.89 0.0 0 0 542.12 332.45&#10;  L 556.54 332.45&#10;  A 0.51 0.51 0.0 0 0 557.02 331.75&#10;  L 531.95 264.70&#10;  A 0.97 0.95 -8.8 0 0 531.08 264.08&#10;  Q 527.96 263.97 524.38 263.96&#10;  Q 520.80 263.95 517.67 264.03&#10;  A 0.97 0.95 9.2 0 0 516.80 264.65&#10;  L 491.29 331.53&#10;  A 0.51 0.51 0.0 0 0 491.76 332.24&#10;  L 506.18 332.33&#10;  A 0.89 0.89 0.0 0 0 507.03 331.75&#10;  L 511.60 319.04&#10;  A 1.42 1.42 0.0 0 1 512.89 318.10&#10;  Q 514.73 318.04 524.20 318.07&#10;  Z&#10;  M 704.73 276.50&#10;  A 0.34 0.34 0.0 0 0 705.07 276.16&#10;  L 705.07 264.28&#10;  A 0.34 0.34 0.0 0 0 704.73 263.94&#10;  L 663.17 263.94&#10;  A 0.34 0.34 0.0 0 0 662.83 264.28&#10;  L 662.83 332.01&#10;  A 0.34 0.34 0.0 0 0 663.17 332.35&#10;  L 705.79 332.35&#10;  A 0.34 0.34 0.0 0 0 706.13 332.01&#10;  L 706.13 319.52&#10;  A 0.34 0.34 0.0 0 0 705.79 319.18&#10;  L 678.27 319.18&#10;  A 0.34 0.34 0.0 0 1 677.93 318.84&#10;  L 677.93 304.16&#10;  A 0.34 0.34 0.0 0 1 678.27 303.82&#10;  L 702.32 303.82&#10;  A 0.34 0.34 0.0 0 0 702.66 303.48&#10;  L 702.66 291.47&#10;  A 0.34 0.34 0.0 0 0 702.32 291.13&#10;  L 678.17 291.13&#10;  A 0.34 0.34 0.0 0 1 677.83 290.79&#10;  L 677.83 276.84&#10;  A 0.34 0.34 0.0 0 1 678.17 276.50&#10;  L 704.73 276.50&#10;  Z&#10;  M 234.48 332.35&#10;  Q 240.80 332.33 241.65 332.28&#10;  A 0.25 0.25 0.0 0 0 241.89 332.03&#10;  L 241.89 277.44&#10;  A 0.46 0.46 0.0 0 1 242.35 276.98&#10;  L 258.70 276.98&#10;  A 0.49 0.48 -0.0 0 0 259.19 276.50&#10;  L 259.19 264.32&#10;  A 0.42 0.42 0.0 0 0 258.77 263.90&#10;  Q 240.11 263.96 234.27 263.98&#10;  Q 228.43 264.00 209.78 264.05&#10;  A 0.42 0.42 0.0 0 0 209.36 264.47&#10;  L 209.43 276.65&#10;  A 0.49 0.48 -0.4 0 0 209.92 277.13&#10;  L 226.27 277.03&#10;  A 0.46 0.46 0.0 0 1 226.74 277.49&#10;  L 227.07 332.08&#10;  A 0.25 0.25 0.0 0 0 227.31 332.32&#10;  Q 228.16 332.37 234.48 332.35&#10;  Z&#10;  M 283.66 318.00&#10;  Q 293.13 318.00 294.98 318.08&#10;  A 1.42 1.42 0.0 0 1 296.26 319.02&#10;  L 300.79 331.76&#10;  A 0.89 0.89 0.0 0 0 301.63 332.34&#10;  L 316.07 332.31&#10;  A 0.52 0.52 0.0 0 0 316.55 331.60&#10;  L 291.27 264.56&#10;  A 0.97 0.95 -9.0 0 0 290.40 263.94&#10;  Q 287.27 263.85 283.69 263.84&#10;  Q 280.11 263.84 276.98 263.93&#10;  A 0.97 0.95 9.1 0 0 276.11 264.55&#10;  L 250.76 331.57&#10;  A 0.52 0.52 0.0 0 0 251.23 332.27&#10;  L 265.67 332.32&#10;  A 0.89 0.89 0.0 0 0 266.51 331.74&#10;  L 271.05 319.00&#10;  A 1.42 1.42 0.0 0 1 272.33 318.07&#10;  Q 274.19 317.99 283.66 318.00&#10;  Z&#10;  M 451.38 263.92&#10;  A 0.46 0.46 0.0 0 0 450.92 264.38&#10;  L 450.92 331.89&#10;  A 0.46 0.46 0.0 0 0 451.38 332.35&#10;  L 488.22 332.35&#10;  A 0.46 0.46 0.0 0 0 488.68 331.89&#10;  L 488.68 319.64&#10;  A 0.46 0.46 0.0 0 0 488.22 319.18&#10;  L 466.47 319.18&#10;  A 0.46 0.46 0.0 0 1 466.01 318.72&#10;  L 466.01 264.38&#10;  A 0.46 0.46 0.0 0 0 465.55 263.92&#10;  L 451.38 263.92&#10;  Z&#10;  M 765.68 321.04&#10;  L 819.39 278.62&#10;  A 0.25 0.25 0.0 0 0 819.21 278.17&#10;  Q 791.94 280.30 763.98 278.00&#10;  A 1.24 1.23 19.4 0 0 762.88 278.52&#10;  L 756.05 288.25&#10;  A 0.75 0.75 0.0 0 0 756.62 289.43&#10;  L 784.09 291.14&#10;  A 0.15 0.15 0.0 0 1 784.18 291.40&#10;  L 766.57 305.31&#10;  A 1.45 1.45 0.0 0 0 766.01 306.57&#10;  Q 766.50 314.00 765.23 320.76&#10;  A 0.28 0.28 0.0 0 0 765.68 321.04&#10;  Z&#10;  M 743.20 338.54&#10;  L 735.50 338.28&#10;  A 0.44 0.44 0.0 0 0 735.06 338.84&#10;  L 741.84 363.07&#10;  A 0.35 0.35 0.0 0 1 741.30 363.46&#10;  Q 723.18 351.18 706.95 339.75&#10;  C 705.17 338.50 704.19 338.50 702.47 339.70&#10;  Q 687.42 350.24 668.04 363.34&#10;  A 0.38 0.37 -9.2 0 1 667.47 362.93&#10;  L 674.32 338.71&#10;  A 0.39 0.39 0.0 0 0 673.93 338.22&#10;  L 666.12 338.53&#10;  L 653.89 338.17&#10;  A 0.56 0.54 9.0 0 0 653.35 338.55&#10;  L 628.78 417.08&#10;  A 0.35 0.35 0.0 0 0 629.31 417.47&#10;  L 703.67 365.52&#10;  A 1.09 1.09 0.0 0 1 704.91 365.52&#10;  L 779.39 417.83&#10;  A 0.35 0.35 0.0 0 0 779.93 417.44&#10;  L 755.02 335.53&#10;  A 0.74 0.74 0.0 0 0 753.96 335.10&#10;  Q 748.99 337.77 743.20 338.54&#10;  Z&#10;  M 167.36 376.61&#10;  A 0.46 0.45 -10.7 0 0 167.88 376.96&#10;  Q 184.81 374.27 194.26 373.11&#10;  Q 236.64 367.90 277.69 364.68&#10;  Q 361.52 358.11 435.33 356.17&#10;  C 454.49 355.67 472.39 354.78 492.75 355.20&#10;  C 517.06 355.70 528.11 355.50 554.16 355.54&#10;  C 563.69 355.56 576.66 354.99 588.00 355.54&#10;  Q 603.05 356.27 621.18 356.52&#10;  C 626.26 356.60 631.54 357.18 637.38 357.22&#10;  A 0.74 0.74 0.0 0 0 638.06 356.77&#10;  L 642.45 346.18&#10;  A 0.75 0.74 -79.0 0 0 641.76 345.15&#10;  Q 631.74 345.24 611.61 344.52&#10;  Q 596.43 343.98 581.40 343.80&#10;  Q 550.16 343.43 538.75 343.42&#10;  Q 463.14 343.34 393.51 347.22&#10;  Q 329.48 350.79 308.44 353.26&#10;  Q 304.04 353.78 288.29 355.25&#10;  C 268.39 357.11 248.24 359.94 229.00 362.77&#10;  C 208.22 365.83 188.34 369.98 167.68 376.03&#10;  A 0.48 0.47 -15.0 0 0 167.35 376.59&#10;  L 167.36 376.61&#10;  Z"/>
<path fill="#e9b308" d="&#10;  M 684.48 254.77&#10;  L 704.28 199.15&#10;  A 0.33 0.33 0.0 0 1 704.90 199.15&#10;  L 724.46 254.56&#10;  A 0.33 0.33 0.0 0 1 724.15 255.00&#10;  L 711.46 255.00&#10;  A 0.33 0.33 0.0 0 1 711.15 254.77&#10;  L 705.09 234.85&#10;  A 0.33 0.33 0.0 0 0 704.46 234.85&#10;  L 698.16 254.98&#10;  A 0.33 0.33 0.0 0 1 697.85 255.21&#10;  L 684.79 255.21&#10;  A 0.33 0.33 0.0 0 1 684.48 254.77&#10;  Z"/>
<path fill="#0d2144" d="&#10;  M 439.02 280.78&#10;  A 0.55 0.54 -61.3 0 1 438.21 281.02&#10;  Q 435.46 279.12 432.80 277.89&#10;  C 425.14 274.32 416.06 276.07 410.35 282.46&#10;  C 402.36 291.39 402.95 308.81 412.91 316.15&#10;  C 420.35 321.62 430.75 320.45 438.62 315.79&#10;  A 0.49 0.49 0.0 0 1 439.33 316.04&#10;  L 443.68 327.66&#10;  A 1.23 1.22 66.6 0 1 443.08 329.18&#10;  C 428.47 336.54 410.40 335.40 398.87 322.89&#10;  C 384.12 306.90 387.06 282.43 403.95 269.37&#10;  Q 410.22 264.51 417.96 263.28&#10;  Q 431.76 261.07 443.38 267.16&#10;  A 1.30 1.30 0.0 0 1 443.98 268.81&#10;  L 439.02 280.78&#10;  Z"/>
<path fill="#0d2144" d="&#10;  M 558.16 325.67&#10;  A 0.68 0.68 0.0 0 1 558.05 324.76&#10;  L 564.94 314.95&#10;  A 0.68 0.67 34.0 0 1 565.86 314.78&#10;  C 571.33 318.38 585.92 323.97 589.39 314.61&#10;  C 590.85 310.67 587.91 307.13 584.09 305.73&#10;  C 572.33 301.42 559.68 298.64 560.11 283.19&#10;  C 560.56 267.26 573.32 261.47 587.56 262.95&#10;  Q 595.51 263.78 602.07 268.54&#10;  A 1.05 1.03 33.4 0 1 602.36 269.91&#10;  L 596.65 279.81&#10;  A 0.99 0.98 32.7 0 1 595.23 280.12&#10;  C 589.99 276.43 579.72 273.38 575.89 280.26&#10;  C 573.49 284.58 577.13 287.78 581.02 289.17&#10;  C 591.15 292.77 602.22 295.40 604.89 306.64&#10;  C 607.61 318.08 601.94 328.56 590.38 332.18&#10;  C 580.16 335.38 566.64 332.84 558.16 325.67&#10;  Z"/>
<path fill="#0d2144" d="&#10;  M 608.41 325.68&#10;  A 0.68 0.68 0.0 0 1 608.30 324.76&#10;  L 615.26 314.99&#10;  A 0.68 0.67 34.4 0 1 616.18 314.82&#10;  C 621.64 318.46 636.21 324.14 639.74 314.79&#10;  C 641.23 310.86 638.30 307.30 634.49 305.87&#10;  C 622.74 301.49 610.09 298.63 610.62 283.16&#10;  C 611.17 267.22 623.98 261.50 638.22 263.07&#10;  Q 646.18 263.95 652.72 268.75&#10;  A 1.05 1.04 33.7 0 1 653.00 270.12&#10;  L 647.22 280.00&#10;  A 0.99 0.99 0.0 0 1 645.80 280.30&#10;  C 640.57 276.58 630.31 273.46 626.44 280.32&#10;  C 624.01 284.63 627.63 287.86 631.52 289.28&#10;  C 641.64 292.94 652.70 295.64 655.31 306.91&#10;  C 657.96 318.38 652.22 328.84 640.62 332.39&#10;  C 630.37 335.53 616.85 332.91 608.41 325.68&#10;  Z"/>
<path fill="#0d2144" d="&#10;  M 753.52 279.91&#10;  A 0.97 0.97 0.0 0 1 752.17 280.19&#10;  Q 745.65 275.94 738.29 276.28&#10;  C 733.89 276.48 729.70 278.49 730.01 283.42&#10;  C 730.19 286.28 731.91 287.30 734.20 288.60&#10;  Q 734.76 288.92 746.19 293.08&#10;  C 754.53 296.11 760.61 301.89 760.83 311.56&#10;  C 761.13 325.14 750.30 333.12 737.65 333.57&#10;  Q 723.49 334.07 712.20 325.63&#10;  A 0.33 0.33 0.0 0 1 712.13 325.18&#10;  L 719.60 314.54&#10;  A 0.45 0.45 0.0 0 1 720.22 314.43&#10;  Q 727.29 319.35 735.96 319.80&#10;  C 738.06 319.91 741.80 318.77 743.44 316.85&#10;  C 747.55 312.03 743.70 307.22 738.52 305.50&#10;  C 728.65 302.22 715.66 298.95 714.93 286.03&#10;  Q 714.58 279.92 715.76 276.53&#10;  C 718.18 269.55 725.24 264.40 732.31 263.30&#10;  C 742.63 261.71 753.07 263.08 761.68 269.39&#10;  A 0.51 0.51 0.0 0 1 761.72 270.18&#10;  Q 757.19 274.25 753.52 279.91&#10;  Z"/>
<path fill="#0d2144" d="&#10;  M 205.59 269.84&#10;  L 199.62 280.19&#10;  A 0.99 0.99 0.0 0 1 198.20 280.51&#10;  C 192.81 276.81 184.10 273.93 179.07 279.56&#10;  Q 176.93 281.96 178.67 286.32&#10;  A 1.80 1.77 -84.1 0 0 179.30 287.11&#10;  Q 182.22 289.15 185.32 290.19&#10;  C 194.87 293.40 206.47 296.61 208.05 308.61&#10;  Q 210.29 325.54 194.59 331.89&#10;  C 184.22 336.08 170.05 333.23 161.17 326.16&#10;  A 0.73 0.72 -53.4 0 1 161.03 325.18&#10;  L 168.04 315.20&#10;  A 0.67 0.67 0.0 0 1 168.98 315.04&#10;  C 174.25 318.74 187.98 323.72 192.01 315.81&#10;  C 194.08 311.76 191.43 307.86 187.62 306.35&#10;  C 177.48 302.33 164.07 300.41 162.89 286.68&#10;  C 160.73 261.52 189.62 257.36 205.40 268.93&#10;  A 0.69 0.69 0.0 0 1 205.59 269.84&#10;  Z"/>
<path fill="#0d2144" d="&#10;  M 355.39 305.49&#10;  A 0.43 0.43 0.0 0 0 355.25 306.16&#10;  C 361.66 313.67 366.72 322.53 372.08 331.77&#10;  A 0.38 0.38 0.0 0 1 371.75 332.34&#10;  L 356.08 332.34&#10;  A 1.91 1.91 0.0 0 1 354.36 331.26&#10;  Q 349.30 320.61 342.84 310.92&#10;  Q 341.90 309.51 340.42 308.35&#10;  A 1.12 1.11 -26.1 0 0 339.74 308.12&#10;  L 335.59 308.12&#10;  A 0.34 0.34 0.0 0 0 335.25 308.46&#10;  L 335.25 331.97&#10;  A 0.37 0.37 0.0 0 1 334.88 332.34&#10;  L 320.70 332.34&#10;  A 0.59 0.58 -90.0 0 1 320.12 331.75&#10;  L 320.12 264.36&#10;  A 0.45 0.45 0.0 0 1 320.57 263.91&#10;  Q 336.81 263.98 345.24 263.87&#10;  C 356.84 263.73 367.53 269.97 368.90 282.46&#10;  Q 370.64 298.40 355.39 305.49&#10;  Z&#10;  M 335.26 276.73&#10;  L 335.22 294.57&#10;  A 0.42 0.42 0.0 0 0 335.64 294.99&#10;  L 344.49 295.01&#10;  A 9.83 8.88 0.1 0 0 354.34 286.15&#10;  L 354.34 285.23&#10;  A 9.83 8.88 0.1 0 0 344.53 276.33&#10;  L 335.68 276.31&#10;  A 0.42 0.42 0.0 0 0 335.26 276.73&#10;  Z"/>
<path fill="#0d2144" d="&#10;  M 524.38 263.96&#10;  Q 527.96 263.97 531.08 264.08&#10;  A 0.97 0.95 -8.8 0 1 531.95 264.70&#10;  L 557.02 331.75&#10;  A 0.51 0.51 0.0 0 1 556.54 332.45&#10;  L 542.12 332.45&#10;  A 0.89 0.89 0.0 0 1 541.28 331.86&#10;  L 536.79 319.12&#10;  A 1.42 1.42 0.0 0 0 535.51 318.18&#10;  Q 533.66 318.10 524.20 318.07&#10;  Q 514.73 318.04 512.89 318.10&#10;  A 1.42 1.42 0.0 0 0 511.60 319.04&#10;  L 507.03 331.75&#10;  A 0.89 0.89 0.0 0 1 506.18 332.33&#10;  L 491.76 332.24&#10;  A 0.51 0.51 0.0 0 1 491.29 331.53&#10;  L 516.80 264.65&#10;  A 0.97 0.95 9.2 0 1 517.67 264.03&#10;  Q 520.80 263.95 524.38 263.96&#10;  Z&#10;  M 524.21 305.47&#10;  Q 531.66 305.53 531.71 305.52&#10;  A 0.50 0.50 0.0 0 0 532.05 304.88&#10;  L 524.64 282.38&#10;  A 0.19 0.15 86.5 0 0 524.52 282.26&#10;  Q 524.46 282.24 524.43 282.24&#10;  Q 524.37 282.24 524.31 282.26&#10;  A 0.19 0.15 -85.5 0 0 524.19 282.38&#10;  L 516.39 304.74&#10;  A 0.50 0.50 0.0 0 0 516.71 305.38&#10;  Q 516.77 305.40 524.21 305.47&#10;  Z"/>
<path fill="#0d2144" d="&#10;  M 704.73 276.50&#10;  L 678.17 276.50&#10;  A 0.34 0.34 0.0 0 0 677.83 276.84&#10;  L 677.83 290.79&#10;  A 0.34 0.34 0.0 0 0 678.17 291.13&#10;  L 702.32 291.13&#10;  A 0.34 0.34 0.0 0 1 702.66 291.47&#10;  L 702.66 303.48&#10;  A 0.34 0.34 0.0 0 1 702.32 303.82&#10;  L 678.27 303.82&#10;  A 0.34 0.34 0.0 0 0 677.93 304.16&#10;  L 677.93 318.84&#10;  A 0.34 0.34 0.0 0 0 678.27 319.18&#10;  L 705.79 319.18&#10;  A 0.34 0.34 0.0 0 1 706.13 319.52&#10;  L 706.13 332.01&#10;  A 0.34 0.34 0.0 0 1 705.79 332.35&#10;  L 663.17 332.35&#10;  A 0.34 0.34 0.0 0 1 662.83 332.01&#10;  L 662.83 264.28&#10;  A 0.34 0.34 0.0 0 1 663.17 263.94&#10;  L 704.73 263.94&#10;  A 0.34 0.34 0.0 0 1 705.07 264.28&#10;  L 705.07 276.16&#10;  A 0.34 0.34 0.0 0 1 704.73 276.50&#10;  Z"/>
<path fill="#0d2144" d="&#10;  M 234.27 263.98&#10;  Q 240.11 263.96 258.77 263.90&#10;  A 0.42 0.42 0.0 0 1 259.19 264.32&#10;  L 259.19 276.50&#10;  A 0.49 0.48 -0.0 0 1 258.70 276.98&#10;  L 242.35 276.98&#10;  A 0.46 0.46 0.0 0 0 241.89 277.44&#10;  L 241.89 332.03&#10;  A 0.25 0.25 0.0 0 1 241.65 332.28&#10;  Q 240.80 332.33 234.48 332.35&#10;  Q 228.16 332.37 227.31 332.32&#10;  A 0.25 0.25 0.0 0 1 227.07 332.08&#10;  L 226.74 277.49&#10;  A 0.46 0.46 0.0 0 0 226.27 277.03&#10;  L 209.92 277.13&#10;  A 0.49 0.48 -0.4 0 1 209.43 276.65&#10;  L 209.36 264.47&#10;  A 0.42 0.42 0.0 0 1 209.78 264.05&#10;  Q 228.43 264.00 234.27 263.98&#10;  Z"/>
<path fill="#0d2144" d="&#10;  M 283.66 318.00&#10;  Q 274.19 317.99 272.33 318.07&#10;  A 1.42 1.42 0.0 0 0 271.05 319.00&#10;  L 266.51 331.74&#10;  A 0.89 0.89 0.0 0 1 265.67 332.32&#10;  L 251.23 332.27&#10;  A 0.52 0.52 0.0 0 1 250.76 331.57&#10;  L 276.11 264.55&#10;  A 0.97 0.95 9.1 0 1 276.98 263.93&#10;  Q 280.11 263.84 283.69 263.84&#10;  Q 287.27 263.85 290.40 263.94&#10;  A 0.97 0.95 -9.0 0 1 291.27 264.56&#10;  L 316.55 331.60&#10;  A 0.52 0.52 0.0 0 1 316.07 332.31&#10;  L 301.63 332.34&#10;  A 0.89 0.89 0.0 0 1 300.79 331.76&#10;  L 296.26 319.02&#10;  A 1.42 1.42 0.0 0 0 294.98 318.08&#10;  Q 293.13 318.00 283.66 318.00&#10;  Z&#10;  M 283.59 305.47&#10;  Q 291.04 305.51 291.10 305.49&#10;  A 0.50 0.50 0.0 0 0 291.43 304.85&#10;  L 283.93 282.38&#10;  A 0.19 0.15 86.2 0 0 283.81 282.26&#10;  Q 283.75 282.24 283.72 282.24&#10;  Q 283.66 282.24 283.60 282.26&#10;  A 0.19 0.15 -85.7 0 0 283.48 282.38&#10;  L 275.76 304.77&#10;  A 0.50 0.50 0.0 0 0 276.09 305.42&#10;  Q 276.14 305.43 283.59 305.47&#10;  Z"/>
<path fill="#0d2144" d="&#10;  M 451.38 263.92&#10;  L 465.55 263.92&#10;  A 0.46 0.46 0.0 0 1 466.01 264.38&#10;  L 466.01 318.72&#10;  A 0.46 0.46 0.0 0 0 466.47 319.18&#10;  L 488.22 319.18&#10;  A 0.46 0.46 0.0 0 1 488.68 319.64&#10;  L 488.68 331.89&#10;  A 0.46 0.46 0.0 0 1 488.22 332.35&#10;  L 451.38 332.35&#10;  A 0.46 0.46 0.0 0 1 450.92 331.89&#10;  L 450.92 264.38&#10;  A 0.46 0.46 0.0 0 1 451.38 263.92&#10;  Z"/>
<path fill="#ffffff" d="&#10;  M 335.26 276.73&#10;  A 0.42 0.42 0.0 0 1 335.68 276.31&#10;  L 344.53 276.33&#10;  A 9.83 8.88 0.1 0 1 354.34 285.23&#10;  L 354.34 286.15&#10;  A 9.83 8.88 0.1 0 1 344.49 295.01&#10;  L 335.64 294.99&#10;  A 0.42 0.42 0.0 0 1 335.22 294.57&#10;  L 335.26 276.73&#10;  Z"/>
<path fill="#0d2144" d="&#10;  M 765.68 321.04&#10;  A 0.28 0.28 0.0 0 1 765.23 320.76&#10;  Q 766.50 314.00 766.01 306.57&#10;  A 1.45 1.45 0.0 0 1 766.57 305.31&#10;  L 784.18 291.40&#10;  A 0.15 0.15 0.0 0 0 784.09 291.14&#10;  L 756.62 289.43&#10;  A 0.75 0.75 0.0 0 1 756.05 288.25&#10;  L 762.88 278.52&#10;  A 1.24 1.23 19.4 0 1 763.98 278.00&#10;  Q 791.94 280.30 819.21 278.17&#10;  A 0.25 0.25 0.0 0 1 819.39 278.62&#10;  L 765.68 321.04&#10;  Z"/>
<path fill="#ffffff" d="&#10;  M 283.72 282.24&#10;  Q 283.75 282.24 283.81 282.26&#10;  A 0.19 0.15 86.2 0 1 283.93 282.38&#10;  L 291.43 304.85&#10;  A 0.50 0.50 0.0 0 1 291.10 305.49&#10;  Q 291.04 305.51 283.59 305.47&#10;  Q 276.14 305.43 276.09 305.42&#10;  A 0.50 0.50 0.0 0 1 275.76 304.77&#10;  L 283.48 282.38&#10;  A 0.19 0.15 -85.7 0 1 283.60 282.26&#10;  Q 283.66 282.24 283.72 282.24&#10;  Z"/>
<path fill="#ffffff" d="&#10;  M 524.21 305.47&#10;  Q 516.77 305.40 516.71 305.38&#10;  A 0.50 0.50 0.0 0 1 516.39 304.74&#10;  L 524.19 282.38&#10;  A 0.19 0.15 -85.5 0 1 524.31 282.26&#10;  Q 524.37 282.24 524.43 282.24&#10;  Q 524.46 282.24 524.52 282.26&#10;  A 0.19 0.15 86.5 0 1 524.64 282.38&#10;  L 532.05 304.88&#10;  A 0.50 0.50 0.0 0 1 531.71 305.52&#10;  Q 531.66 305.53 524.21 305.47&#10;  Z"/>
<path fill="#0d2144" d="&#10;  M 666.12 338.53&#10;  L 650.21 388.28&#10;  A 0.15 0.15 0.0 0 0 650.44 388.45&#10;  L 703.75 351.20&#10;  A 1.59 1.58 -44.8 0 1 705.56 351.20&#10;  L 758.81 388.60&#10;  A 0.13 0.13 0.0 0 0 759.01 388.45&#10;  L 743.20 338.54&#10;  Q 748.99 337.77 753.96 335.10&#10;  A 0.74 0.74 0.0 0 1 755.02 335.53&#10;  L 779.93 417.44&#10;  A 0.35 0.35 0.0 0 1 779.39 417.83&#10;  L 704.91 365.52&#10;  A 1.09 1.09 0.0 0 0 703.67 365.52&#10;  L 629.31 417.47&#10;  A 0.35 0.35 0.0 0 1 628.78 417.08&#10;  L 653.35 338.55&#10;  A 0.56 0.54 9.0 0 1 653.89 338.17&#10;  L 666.12 338.53&#10;  Z"/>
<path fill="#e9b308" d="&#10;  M 743.20 338.54&#10;  L 759.01 388.45&#10;  A 0.13 0.13 0.0 0 1 758.81 388.60&#10;  L 705.56 351.20&#10;  A 1.59 1.58 -44.8 0 0 703.75 351.20&#10;  L 650.44 388.45&#10;  A 0.15 0.15 0.0 0 1 650.21 388.28&#10;  L 666.12 338.53&#10;  L 673.93 338.22&#10;  A 0.39 0.39 0.0 0 1 674.32 338.71&#10;  L 667.47 362.93&#10;  A 0.38 0.37 -9.2 0 0 668.04 363.34&#10;  Q 687.42 350.24 702.47 339.70&#10;  C 704.19 338.50 705.17 338.50 706.95 339.75&#10;  Q 723.18 351.18 741.30 363.46&#10;  A 0.35 0.35 0.0 0 0 741.84 363.07&#10;  L 735.06 338.84&#10;  A 0.44 0.44 0.0 0 1 735.50 338.28&#10;  L 743.20 338.54&#10;  Z"/>
<path fill="#e9b308" d="&#10;  M 167.36 376.61&#10;  L 167.35 376.59&#10;  A 0.48 0.47 -15.0 0 1 167.68 376.03&#10;  C 188.34 369.98 208.22 365.83 229.00 362.77&#10;  C 248.24 359.94 268.39 357.11 288.29 355.25&#10;  Q 304.04 353.78 308.44 353.26&#10;  Q 329.48 350.79 393.51 347.22&#10;  Q 463.14 343.34 538.75 343.42&#10;  Q 550.16 343.43 581.40 343.80&#10;  Q 596.43 343.98 611.61 344.52&#10;  Q 631.74 345.24 641.76 345.15&#10;  A 0.75 0.74 -79.0 0 1 642.45 346.18&#10;  L 638.06 356.77&#10;  A 0.74 0.74 0.0 0 1 637.38 357.22&#10;  C 631.54 357.18 626.26 356.60 621.18 356.52&#10;  Q 603.05 356.27 588.00 355.54&#10;  C 576.66 354.99 563.69 355.56 554.16 355.54&#10;  C 528.11 355.50 517.06 355.70 492.75 355.20&#10;  C 472.39 354.78 454.49 355.67 435.33 356.17&#10;  Q 361.52 358.11 277.69 364.68&#10;  Q 236.64 367.90 194.26 373.11&#10;  Q 184.81 374.27 167.88 376.96&#10;  A 0.46 0.45 -10.7 0 1 167.36 376.61&#10;  Z"/>
</svg>