<svg xmlns="http://www.w3.org/2000/svg" xmlns:xlink="http://www.w3.org/1999/xlink" width="1440" zoomAndPan="magnify" viewBox="0 0 1080 607.499987" height="810" preserveAspectRatio="xMidYMid meet" version="1.2"><defs><clipPath id="2c9d5a928c"><path d="M 0.445312 213 L 112 213 L 112 364 L 0.445312 364 Z M 0.445312 213 "/></clipPath><clipPath id="ef216af79b"><path d="M 949 238 L 1079.554688 238 L 1079.554688 344 L 949 344 Z M 949 238 "/></clipPath></defs><g id="88851c5bf9"><path style="fill:none;stroke-width:2;stroke-linecap:butt;stroke-linejoin:miter;stroke:#f4d984;stroke-opacity:1;stroke-miterlimit:4;" d="M 684.480656 254.770615 C 684.461078 254.819563 684.456183 254.870959 684.463525 254.924803 C 684.470867 254.978646 684.490445 255.025147 684.522259 255.069201 C 684.551626 255.113255 684.590782 255.147519 684.639726 255.171993 C 684.686224 255.196467 684.737616 255.208704 684.789008 255.211152 L 697.849925 255.211152 C 698.008995 255.208704 698.111779 255.130387 698.160724 254.981094 L 704.459919 234.850995 C 704.508863 234.694359 704.614095 234.618489 704.775612 234.618489 C 704.93713 234.618489 705.042361 234.694359 705.088859 234.850995 L 711.150671 254.770615 C 711.197169 254.922355 711.3024 254.998226 711.459023 255.000673 L 724.150407 255.000673 C 724.204246 255.000673 724.253191 254.988436 724.302136 254.961514 C 724.348633 254.93704 724.387789 254.902776 724.419603 254.86117 C 724.44897 254.817116 724.468548 254.768167 724.47589 254.714324 C 724.483231 254.662928 724.478337 254.611532 724.461206 254.560136 L 704.900422 199.150356 C 704.846582 199.005958 704.743798 198.932535 704.589622 198.932535 C 704.435446 198.932535 704.332662 199.005958 704.278823 199.150356 L 684.480656 254.770615 " transform="matrix(1.596186,0,0,1.596063,-238.703167,-187.544015)"/><path style="fill:none;stroke-width:2;stroke-linecap:butt;stroke-linejoin:miter;stroke:#8690a2;stroke-opacity:1;stroke-miterlimit:4;" d="M 439.020095 280.779437 L 443.980649 268.809064 C 444.04183 268.659771 444.076091 268.503136 444.078539 268.341605 C 444.080986 268.177628 444.056514 268.020992 444.000227 267.869252 C 443.943941 267.715064 443.863182 267.578008 443.755503 267.455636 C 443.650272 267.333265 443.523015 267.235368 443.381075 267.159498 C 435.633115 263.099214 427.160773 261.806972 417.959152 263.280323 C 412.800372 264.100212 408.131039 266.12913 403.951154 269.369525 C 387.060307 282.429004 384.121173 306.900841 398.870685 322.889891 C 410.39963 335.401145 428.470046 336.539199 443.080065 329.179782 C 443.214663 329.113701 443.332131 329.025594 443.434915 328.913012 C 443.535252 328.802878 443.613563 328.678059 443.66985 328.536108 C 443.723689 328.396605 443.753056 328.252206 443.755503 328.100466 C 443.75795 327.948725 443.731031 327.80188 443.679639 327.659929 L 439.330894 316.039539 C 439.303975 315.971011 439.264819 315.912272 439.213427 315.860876 C 439.162035 315.80948 439.103301 315.772769 439.032331 315.748295 C 438.963808 315.72382 438.895286 315.716478 438.821868 315.72382 C 438.750898 315.731163 438.682376 315.753189 438.621195 315.789901 C 430.750873 320.449805 420.350105 321.619675 412.910497 316.149673 C 402.950233 308.809835 402.360448 291.389039 410.350685 282.46082 C 416.060095 276.070585 425.139353 274.320673 432.799212 277.889024 C 434.573461 278.708912 436.377076 279.753964 438.210059 281.019285 C 438.276134 281.065786 438.349551 281.095155 438.43031 281.10984 C 438.511069 281.122077 438.589381 281.117182 438.667692 281.092708 C 438.746004 281.070681 438.816974 281.031522 438.878155 280.975231 C 438.939336 280.921388 438.988281 280.855307 439.020095 280.779437 " transform="matrix(1.596186,0,0,1.596063,-238.703167,-187.544015)"/><path style="fill:none;stroke-width:2;stroke-linecap:butt;stroke-linejoin:miter;stroke:#8690a2;stroke-opacity:1;stroke-miterlimit:4;" d="M 558.159052 325.670169 C 566.641183 332.841135 580.159734 335.379118 590.379406 332.180329 C 601.940165 328.560582 607.610418 318.080694 604.889088 306.638966 C 602.21915 295.400374 591.150286 292.769389 581.021162 289.169222 C 577.130051 287.779082 573.491006 284.580293 575.889301 280.260582 C 579.719231 273.380861 589.990295 276.430356 595.229834 280.121079 C 595.344854 280.199396 595.469664 280.25324 595.604262 280.280161 C 595.741307 280.307083 595.875905 280.307083 596.010504 280.277714 C 596.147549 280.248345 596.269911 280.192054 596.380037 280.111289 C 596.49261 280.030524 596.58071 279.930179 596.649233 279.810255 L 602.36109 269.910407 C 602.424718 269.800273 602.468768 269.680349 602.490794 269.55553 C 602.510372 269.428264 602.507924 269.300997 602.481005 269.173731 C 602.454085 269.046465 602.40514 268.928988 602.33417 268.818854 C 602.2632 268.711167 602.1751 268.618165 602.069868 268.539847 C 597.696652 265.365532 592.860906 263.503039 587.560186 262.949921 C 573.3197 261.469226 560.559793 267.259842 560.109501 283.190154 C 559.678787 298.64077 572.331015 301.421048 584.09 305.73097 C 587.910141 307.130899 590.849276 310.66988 589.390721 314.61024 C 585.920535 323.969207 571.330094 318.37928 565.860514 314.779113 C 565.706338 314.681216 565.542373 314.646952 565.363724 314.681216 C 565.185076 314.713032 565.043136 314.803587 564.940352 314.950433 L 558.048926 324.759726 C 557.948589 324.904124 557.906986 325.06076 557.929011 325.236975 C 557.948589 325.410742 558.026901 325.55514 558.159052 325.670169 " transform="matrix(1.596186,0,0,1.596063,-238.703167,-187.544015)"/><path style="fill:none;stroke-width:2;stroke-linecap:butt;stroke-linejoin:miter;stroke:#8690a2;stroke-opacity:1;stroke-miterlimit:4;" d="M 608.410666 325.679959 C 616.851195 332.909663 630.369745 335.530859 640.618784 332.390808 C 652.221146 328.839589 657.959922 318.37928 655.309562 306.91063 C 652.700805 295.640222 641.639283 292.940709 631.519948 289.279356 C 627.628837 287.859847 624.00937 284.629242 626.439479 280.31932 C 630.311011 273.459178 640.569839 276.57965 645.79959 280.299741 C 645.912163 280.380506 646.036972 280.431902 646.17157 280.461271 C 646.306168 280.488193 646.440766 280.488193 646.575365 280.458824 C 646.709963 280.431902 646.834772 280.378059 646.944898 280.297293 C 647.057471 280.216528 647.148019 280.118631 647.218988 280.001155 L 652.999368 270.120886 C 653.065443 270.008304 653.109494 269.890828 653.129072 269.763561 C 653.151097 269.636295 653.14865 269.509029 653.124177 269.38421 C 653.097258 269.256944 653.05076 269.139467 652.97979 269.029333 C 652.911267 268.921646 652.823167 268.828644 652.720383 268.750326 C 648.359402 265.54909 643.526104 263.657227 638.220489 263.069845 C 623.980003 261.501043 611.171152 267.220683 610.620523 283.160785 C 610.089472 298.63098 622.739253 301.489576 634.490896 305.870473 C 638.298801 307.299772 641.230594 310.86078 639.740225 314.788903 C 636.208858 324.140527 621.640442 318.460045 616.180651 314.820719 C 616.026475 314.720375 615.860063 314.686111 615.683861 314.720375 C 615.505213 314.752191 615.363273 314.842746 615.260489 314.989592 L 608.30054 324.759726 C 608.195309 324.904124 608.153706 325.065655 608.173284 325.241869 C 608.195309 325.418084 608.27362 325.56493 608.410666 325.679959 " transform="matrix(1.596186,0,0,1.596063,-238.703167,-187.544015)"/><path style="fill:none;stroke-width:2;stroke-linecap:butt;stroke-linejoin:miter;stroke:#8690a2;stroke-opacity:1;stroke-miterlimit:4;" d="M 753.519727 279.9106 C 755.966967 276.136665 758.700533 272.893822 761.720426 270.179624 C 761.776713 270.128228 761.820763 270.067043 761.85013 269.996067 C 761.879497 269.925092 761.891733 269.851669 761.886839 269.775799 C 761.884392 269.699928 761.864814 269.626505 761.828105 269.560425 C 761.791396 269.491897 761.742452 269.435606 761.678823 269.389105 C 753.069435 263.079634 742.629512 261.709074 732.309503 263.299903 C 725.239428 264.398798 718.179143 269.550635 715.758823 276.530701 C 714.973259 278.789678 714.696721 281.95665 714.929209 286.029171 C 715.660933 298.949146 728.65088 302.21891 738.520597 305.500912 C 743.698955 307.219006 747.55091 312.030651 743.439548 316.849637 C 741.799898 318.770869 738.060516 319.908923 735.960784 319.798789 C 730.180405 319.500202 724.933524 317.711132 720.22014 314.429131 C 720.119804 314.360603 720.007231 314.336128 719.887316 314.358155 C 719.767401 314.380182 719.671959 314.441368 719.600989 314.539265 L 712.129567 325.180684 C 712.080622 325.251659 712.061044 325.332424 712.075728 325.418084 C 712.087964 325.506192 712.129567 325.577167 712.200537 325.631011 C 719.725798 331.257649 728.210377 333.903319 737.64938 333.570468 C 750.29916 333.120142 761.130642 325.139077 760.829631 311.560744 C 760.60938 301.890955 754.530437 296.110129 746.190245 293.080212 C 738.569542 290.307276 734.5732 288.814344 734.201219 288.598971 C 731.910603 287.299386 730.190194 286.278809 730.009098 283.420212 C 729.700746 278.491091 733.89042 276.479305 738.290556 276.281063 C 743.197271 276.053453 747.822554 277.355484 752.168851 280.189607 C 752.278977 280.260582 752.396444 280.309531 752.521253 280.334005 C 752.64851 280.358479 752.775766 280.358479 752.903023 280.331557 C 753.030279 280.304636 753.147747 280.255687 753.252978 280.182264 C 753.360657 280.108841 753.448757 280.018287 753.519727 279.9106 " transform="matrix(1.596186,0,0,1.596063,-238.703167,-187.544015)"/><g clip-rule="nonzero" clip-path="url(#2c9d5a928c)"><path style="fill:none;stroke-width:2;stroke-linecap:butt;stroke-linejoin:miter;stroke:#8690a2;stroke-opacity:1;stroke-miterlimit:4;" d="M 205.399278 268.928988 C 189.619478 257.359994 160.729817 261.520622 162.890729 286.680187 C 164.070299 300.41026 177.481171 302.329044 187.620084 306.350169 C 191.430435 307.860233 194.080796 311.758986 192.010431 315.80948 C 187.979828 323.719569 174.250815 318.739052 168.979461 315.040988 C 168.906044 314.987144 168.827732 314.950433 168.739632 314.930853 C 168.651531 314.911274 168.565878 314.908827 168.47533 314.923511 C 168.387229 314.938196 168.30647 314.970012 168.230606 315.018961 C 168.154741 315.065462 168.091113 315.126648 168.039721 315.200071 L 161.030827 325.180684 C 160.920702 325.337319 160.879099 325.511087 160.906018 325.699539 C 160.932938 325.887991 161.021038 326.042179 161.17032 326.159655 C 170.048905 333.230276 184.220868 336.079083 194.589822 331.889085 C 205.056665 327.657481 209.542454 319.896686 208.049638 308.609146 C 206.471169 296.609404 194.868807 293.400825 185.319679 290.189799 C 183.254209 289.497177 181.247472 288.469257 179.29947 287.110934 C 179.013143 286.910245 178.80268 286.645923 178.670529 286.320415 C 177.510538 283.41287 177.642689 281.158788 179.069429 279.560617 C 184.100953 273.929085 192.810678 276.809708 198.1995 280.51022 C 198.31452 280.588537 198.439329 280.639933 198.573927 280.666855 C 198.710973 280.693777 198.845571 280.691329 198.980169 280.66196 C 199.114767 280.630144 199.237129 280.573853 199.349702 280.493088 C 199.459828 280.409875 199.550376 280.309531 199.618899 280.189607 L 205.590163 269.839432 C 205.680711 269.687691 205.70763 269.523713 205.670922 269.347499 C 205.634213 269.173731 205.543665 269.034228 205.399278 268.928988 " transform="matrix(1.596186,0,0,1.596063,-238.703167,-187.544015)"/></g><path style="fill:none;stroke-width:2;stroke-linecap:butt;stroke-linejoin:miter;stroke:#8690a2;stroke-opacity:1;stroke-miterlimit:4;" d="M 355.390582 305.491122 C 365.556415 300.76269 370.059335 293.087555 368.899344 282.46082 C 367.52889 269.969145 356.839348 263.73065 345.239433 263.870154 C 339.620571 263.943577 331.397847 263.955814 320.568812 263.909313 C 320.44645 263.909313 320.338772 263.953366 320.250671 264.041474 C 320.165018 264.129581 320.120968 264.234821 320.120968 264.359639 L 320.120968 331.749582 C 320.120968 331.913559 320.177254 332.053063 320.289827 332.168092 C 320.4024 332.283121 320.539446 332.339412 320.700963 332.339412 L 334.880269 332.339412 C 334.983053 332.339412 335.068706 332.302701 335.142123 332.231725 C 335.213093 332.158302 335.249802 332.072642 335.249802 331.96985 L 335.249802 308.459853 C 335.249802 308.36685 335.284063 308.286085 335.350139 308.220005 C 335.416214 308.153924 335.496973 308.11966 335.589968 308.11966 L 339.740486 308.11966 C 339.992552 308.11966 340.220145 308.19553 340.420819 308.349718 C 341.407056 309.123106 342.212198 309.979706 342.841138 310.919518 C 347.145833 317.380729 350.985551 324.160106 354.360294 331.260096 C 354.519365 331.590499 354.7543 331.852374 355.065099 332.048168 C 355.375899 332.241515 355.713618 332.339412 356.080704 332.339412 L 371.750378 332.339412 C 371.897212 332.339412 372.007338 332.278226 372.080755 332.15096 C 372.154172 332.023694 372.154172 331.896427 372.080755 331.769161 C 366.718853 322.530119 361.66041 313.670428 355.251089 306.15927 C 355.207039 306.110321 355.175225 306.051583 355.158094 305.985502 C 355.140964 305.921869 355.140964 305.855789 355.1532 305.789708 C 355.167883 305.723628 355.194803 305.664889 355.236406 305.613493 C 355.278009 305.55965 355.329401 305.518044 355.390582 305.491122 " transform="matrix(1.596186,0,0,1.596063,-238.703167,-187.544015)"/><path style="fill:none;stroke-width:2;stroke-linecap:butt;stroke-linejoin:miter;stroke:#8690a2;stroke-opacity:1;stroke-miterlimit:4;" d="M 524.201157 318.070904 C 530.507693 318.090484 534.276442 318.127195 535.509851 318.181038 C 535.798625 318.190828 536.06048 318.28383 536.292967 318.45515 C 536.527902 318.62647 536.691867 318.846739 536.789757 319.120851 L 541.280441 331.859716 C 541.344069 332.038378 541.451748 332.180329 541.605924 332.288016 C 541.7601 332.395703 541.931407 332.449546 542.119844 332.449546 L 556.538979 332.449546 C 556.624632 332.451994 556.705391 332.432414 556.781256 332.393255 C 556.85712 332.354097 556.918301 332.297806 556.967246 332.229278 C 557.016191 332.158302 557.045558 332.079985 557.052899 331.996772 C 557.062688 331.911112 557.052899 331.830347 557.021085 331.749582 L 531.949117 264.699832 C 531.883042 264.518722 531.770469 264.371877 531.611398 264.259295 C 531.452328 264.146713 531.276126 264.087975 531.080347 264.080633 C 529.000194 264.00721 526.765864 263.965603 524.379806 263.960709 C 521.993747 263.953366 519.756971 263.977841 517.669475 264.029237 C 517.473696 264.036579 517.297495 264.097765 517.138424 264.210346 C 516.979354 264.322928 516.866781 264.469774 516.800705 264.650883 L 491.290682 331.529313 C 491.25642 331.607631 491.244184 331.690843 491.251526 331.776503 C 491.258867 331.862163 491.285787 331.940481 491.334732 332.011457 C 491.381229 332.082432 491.44241 332.138723 491.518275 332.180329 C 491.594139 332.219488 491.674898 332.239067 491.760552 332.239067 L 506.179686 332.329622 C 506.368124 332.334517 506.541878 332.280674 506.698501 332.175434 C 506.852677 332.067747 506.96525 331.928244 507.028878 331.749582 L 511.600322 319.040086 C 511.698211 318.765974 511.864623 318.543258 512.099558 318.371938 C 512.336941 318.200618 512.598795 318.110063 512.890017 318.100273 C 514.116084 318.061114 517.88728 318.048877 524.201157 318.070904 " transform="matrix(1.596186,0,0,1.596063,-238.703167,-187.544015)"/><path style="fill:none;stroke-width:2;stroke-linecap:butt;stroke-linejoin:miter;stroke:#8690a2;stroke-opacity:1;stroke-miterlimit:4;" d="M 704.729115 276.498884 C 704.824557 276.498884 704.902869 276.467068 704.971392 276.400987 C 705.037467 276.334907 705.069281 276.254142 705.069281 276.161139 L 705.069281 264.278874 C 705.069281 264.185872 705.037467 264.105107 704.971392 264.039026 C 704.902869 263.972946 704.824557 263.941129 704.729115 263.941129 L 663.170095 263.941129 C 663.0771 263.941129 662.996341 263.972946 662.930266 264.039026 C 662.86419 264.105107 662.829929 264.185872 662.829929 264.278874 L 662.829929 332.009009 C 662.829929 332.104459 662.86419 332.185224 662.930266 332.251305 C 662.996341 332.317385 663.0771 332.349202 663.170095 332.349202 L 705.78877 332.349202 C 705.884212 332.349202 705.964971 332.317385 706.031046 332.251305 C 706.097122 332.185224 706.128936 332.104459 706.128936 332.009009 L 706.128936 319.519782 C 706.128936 319.426779 706.097122 319.346014 706.031046 319.279934 C 705.964971 319.213853 705.884212 319.179589 705.78877 319.179589 L 678.269562 319.179589 C 678.176567 319.179589 678.095808 319.147773 678.029733 319.079245 C 677.963657 319.013164 677.929396 318.934846 677.929396 318.839397 L 677.929396 304.159721 C 677.929396 304.066719 677.963657 303.985953 678.029733 303.919873 C 678.095808 303.853792 678.176567 303.819528 678.269562 303.819528 L 702.321031 303.819528 C 702.414026 303.819528 702.494785 303.787712 702.560861 303.721631 C 702.626936 303.653103 702.65875 303.574785 702.65875 303.479336 L 702.65875 291.469804 C 702.65875 291.376802 702.626936 291.296037 702.560861 291.229956 C 702.494785 291.163876 702.414026 291.129612 702.321031 291.129612 L 678.169225 291.129612 C 678.07623 291.129612 677.995471 291.097795 677.929396 291.029267 C 677.86332 290.963187 677.829059 290.884869 677.829059 290.789419 L 677.829059 276.839077 C 677.829059 276.746075 677.86332 276.66531 677.929396 276.599229 C 677.995471 276.533148 678.07623 276.498884 678.169225 276.498884 L 704.729115 276.498884 " transform="matrix(1.596186,0,0,1.596063,-238.703167,-187.544015)"/><path style="fill:none;stroke-width:2;stroke-linecap:butt;stroke-linejoin:miter;stroke:#8690a2;stroke-opacity:1;stroke-miterlimit:4;" d="M 234.479824 332.349202 C 238.69397 332.336965 241.082476 332.31249 241.650236 332.280674 C 241.716311 332.278226 241.775045 332.251305 241.821542 332.202356 C 241.86804 332.155855 241.890065 332.097117 241.890065 332.031036 L 241.890065 277.441144 C 241.890065 277.313878 241.934115 277.203744 242.024663 277.115636 C 242.115211 277.025082 242.22289 276.981028 242.350146 276.981028 L 258.700153 276.981028 C 258.834751 276.981028 258.949771 276.932079 259.047661 276.839077 C 259.143103 276.746075 259.189601 276.633493 259.189601 276.498884 L 259.189601 264.320481 C 259.189601 264.203004 259.147997 264.105107 259.067239 264.021894 C 258.984032 263.941129 258.886143 263.899523 258.771123 263.899523 C 246.329357 263.941129 238.162919 263.965603 234.269362 263.980288 C 230.375804 263.992525 222.21426 264.016999 209.779837 264.048816 C 209.664816 264.048816 209.56448 264.090422 209.483721 264.173635 C 209.400515 264.2544 209.358911 264.354745 209.358911 264.469774 L 209.429881 276.650625 C 209.429881 276.782786 209.478826 276.895368 209.574269 276.98837 C 209.669711 277.08382 209.784731 277.130321 209.919329 277.130321 L 226.269336 277.029976 C 226.39904 277.027529 226.509165 277.071583 226.60216 277.162138 C 226.695156 277.250245 226.739206 277.360379 226.739206 277.490093 L 227.069583 332.079985 C 227.07203 332.146065 227.096503 332.199909 227.143 332.24641 C 227.189498 332.292911 227.245784 332.317385 227.309413 332.319833 C 227.877172 332.354097 230.265678 332.363886 234.479824 332.349202 " transform="matrix(1.596186,0,0,1.596063,-238.703167,-187.544015)"/><path style="fill:none;stroke-width:2;stroke-linecap:butt;stroke-linejoin:miter;stroke:#8690a2;stroke-opacity:1;stroke-miterlimit:4;" d="M 283.659547 317.999929 C 289.973425 317.999929 293.747068 318.02685 294.980477 318.080694 C 295.269251 318.090484 295.531106 318.183486 295.763594 318.354806 C 295.996081 318.526126 296.162494 318.746394 296.260383 319.020506 L 300.790223 331.759371 C 300.856299 331.935586 300.963977 332.07509 301.118154 332.182777 C 301.27233 332.288016 301.443636 332.341859 301.629627 332.339412 L 316.070786 332.310043 C 316.15644 332.310043 316.237199 332.288016 316.310616 332.248857 C 316.38648 332.207251 316.447661 332.153407 316.496606 332.082432 C 316.545551 332.011457 316.57247 331.933139 316.582259 331.847479 C 316.592048 331.761819 316.582259 331.678606 316.550445 331.600289 L 291.270462 264.560329 C 291.201939 264.379219 291.089366 264.232373 290.932743 264.119791 C 290.773672 264.00721 290.595024 263.946024 290.399245 263.941129 C 288.314197 263.879943 286.07742 263.845679 283.688914 263.840785 C 281.302856 263.840785 279.066079 263.870154 276.981031 263.928892 C 276.782805 263.936234 276.606603 263.99742 276.447533 264.110002 C 276.288462 264.222583 276.175889 264.369429 276.109814 264.550539 L 250.758861 331.570919 C 250.731941 331.649237 250.722152 331.730002 250.731941 331.810767 C 250.74173 331.89398 250.76865 331.96985 250.815147 332.040826 C 250.861645 332.109354 250.922826 332.163197 250.996243 332.204803 C 251.067213 332.24641 251.145525 332.265989 251.231178 332.270884 L 265.669891 332.319833 C 265.855881 332.32228 266.027187 332.268437 266.181364 332.163197 C 266.33554 332.05551 266.445665 331.916007 266.509294 331.739792 L 271.048923 319.000927 C 271.14926 318.729262 271.315672 318.508994 271.54816 318.340121 C 271.780647 318.171249 272.042502 318.080694 272.328829 318.070904 C 273.569579 318.017061 277.34567 317.992586 283.659547 317.999929 " transform="matrix(1.596186,0,0,1.596063,-238.703167,-187.544015)"/><path style="fill:none;stroke-width:2;stroke-linecap:butt;stroke-linejoin:miter;stroke:#8690a2;stroke-opacity:1;stroke-miterlimit:4;" d="M 451.381101 263.919102 C 451.253845 263.919102 451.143719 263.965603 451.055618 264.053711 C 450.96507 264.144266 450.92102 264.251953 450.92102 264.379219 L 450.92102 331.889085 C 450.92102 332.016351 450.96507 332.126486 451.055618 332.214593 C 451.143719 332.305148 451.253845 332.349202 451.381101 332.349202 L 488.219396 332.349202 C 488.346653 332.349202 488.454331 332.305148 488.544879 332.214593 C 488.635427 332.126486 488.679477 332.016351 488.679477 331.889085 L 488.679477 319.639706 C 488.679477 319.512439 488.635427 319.404753 488.544879 319.314198 C 488.454331 319.22609 488.346653 319.179589 488.219396 319.179589 L 466.470779 319.179589 C 466.343523 319.179589 466.233397 319.135535 466.145297 319.044981 C 466.054749 318.954426 466.010698 318.846739 466.010698 318.719473 L 466.010698 264.379219 C 466.010698 264.251953 465.964201 264.144266 465.8761 264.053711 C 465.785552 263.965603 465.677874 263.919102 465.550617 263.919102 L 451.381101 263.919102 " transform="matrix(1.596186,0,0,1.596063,-238.703167,-187.544015)"/><g clip-rule="nonzero" clip-path="url(#ef216af79b)"><path style="fill:none;stroke-width:2;stroke-linecap:butt;stroke-linejoin:miter;stroke:#8690a2;stroke-opacity:1;stroke-miterlimit:4;" d="M 765.68006 321.039635 L 819.389623 278.620805 C 819.494855 278.544935 819.524222 278.44459 819.475277 278.324666 C 819.426332 278.204742 819.338231 278.153346 819.210975 278.170478 C 801.030433 279.589987 782.619851 279.533696 763.979228 277.999158 C 763.763871 277.984474 763.555856 278.023632 763.360077 278.116635 C 763.164298 278.20719 763.005227 278.344246 762.880418 278.52046 L 756.050173 288.248988 C 755.881313 288.491284 755.859288 288.743369 755.988992 289.007691 C 756.116248 289.272014 756.326711 289.413964 756.62038 289.431096 L 784.090642 291.139401 C 784.15427 291.144296 784.198321 291.17856 784.220346 291.239746 C 784.242371 291.303379 784.227687 291.354775 784.18119 291.398829 L 766.570855 305.310012 C 766.377523 305.459305 766.230689 305.64531 766.130352 305.868026 C 766.032462 306.093189 765.990859 306.325695 766.010437 306.570438 C 766.33592 311.524033 766.076513 316.252465 765.229768 320.760628 C 765.200401 320.890342 765.242004 320.990686 765.354577 321.061662 C 765.46715 321.132637 765.577276 321.125295 765.68006 321.039635 " transform="matrix(1.596186,0,0,1.596063,-238.703167,-187.544015)"/></g><path style="fill:none;stroke-width:2;stroke-linecap:butt;stroke-linejoin:miter;stroke:#f4d984;stroke-opacity:1;stroke-miterlimit:4;" d="M 743.199719 338.541196 L 735.500703 338.279321 C 735.429733 338.276873 735.361211 338.291558 735.297582 338.320927 C 735.233954 338.350296 735.180115 338.391903 735.136065 338.448193 C 735.094462 338.502037 735.065095 338.56567 735.050411 338.634198 C 735.038175 338.702726 735.040622 338.771254 735.0602 338.839782 L 741.839053 363.069324 C 741.892893 363.230854 741.848842 363.363015 741.711797 363.460912 C 741.574752 363.561257 741.437706 363.561257 741.300661 363.460912 C 729.221087 355.274264 717.770454 347.36907 706.951208 339.750225 C 705.169618 338.499589 704.190722 338.499589 702.470313 339.698829 C 692.436631 346.727844 680.959078 354.606116 668.040101 363.340988 C 667.893267 363.43399 667.74888 363.429096 667.60694 363.328751 C 667.467447 363.228406 667.42095 363.093798 667.469895 362.92982 L 674.319718 338.710068 C 674.336848 338.65133 674.336848 338.590144 674.324612 338.528959 C 674.312376 338.47022 674.285456 338.416377 674.248748 338.367428 C 674.209592 338.31848 674.163094 338.281768 674.106808 338.254847 C 674.050521 338.230372 673.991788 338.218135 673.930607 338.220583 L 666.119019 338.528959 " transform="matrix(1.596186,0,0,1.596063,-238.703167,-187.544015)"/><path style="fill:none;stroke-width:2;stroke-linecap:butt;stroke-linejoin:miter;stroke:#8690a2;stroke-opacity:1;stroke-miterlimit:4;" d="M 666.119019 338.528959 L 653.890163 338.169187 C 653.765354 338.166739 653.652781 338.201003 653.552444 338.271979 C 653.454555 338.342954 653.386032 338.435956 653.349323 338.550985 L 628.779039 417.079175 C 628.734989 417.23581 628.776592 417.363076 628.908743 417.460973 C 629.040894 417.556423 629.173045 417.561318 629.31009 417.470763 L 703.66946 365.519199 C 703.85545 365.391933 704.063466 365.325853 704.291059 365.325853 C 704.516205 365.325853 704.72422 365.391933 704.910211 365.519199 L 779.389495 417.830535 C 779.52654 417.93088 779.663586 417.93088 779.803079 417.830535 C 779.940124 417.732638 779.981727 417.600477 779.930335 417.438947 L 755.019885 335.530859 C 754.988071 335.423172 754.934232 335.33017 754.858367 335.249404 C 754.782503 335.168639 754.694402 335.105006 754.591618 335.0634 C 754.488834 335.021794 754.383603 335.004662 754.27103 335.012004 C 754.160904 335.016899 754.05812 335.046268 753.96023 335.100111 C 750.646668 336.879392 747.059015 338.027236 743.199719 338.541196 " transform="matrix(1.596186,0,0,1.596063,-238.703167,-187.544015)"/><path style="fill:none;stroke-width:2;stroke-linecap:butt;stroke-linejoin:miter;stroke:#7b6a26;stroke-opacity:1;stroke-miterlimit:4;" d="M 666.119019 338.528959 L 650.209515 388.280284 C 650.18749 388.348812 650.204621 388.405103 650.263354 388.449157 C 650.322088 388.49321 650.380822 388.49321 650.439556 388.449157 L 703.750219 351.199296 C 704.02431 351.010844 704.32532 350.915394 704.655698 350.915394 C 704.988522 350.915394 705.289533 351.010844 705.561176 351.199296 L 758.810659 388.600897 C 758.862051 388.640056 758.913443 388.640056 758.967282 388.600897 C 759.018674 388.561738 759.033358 388.510342 759.008885 388.449157 L 743.199719 338.541196 " transform="matrix(1.596186,0,0,1.596063,-238.703167,-187.544015)"/><path style="fill:none;stroke-width:2;stroke-linecap:butt;stroke-linejoin:miter;stroke:#f4d984;stroke-opacity:1;stroke-miterlimit:4;" d="M 167.359389 376.610945 C 167.383861 376.728422 167.447489 376.818977 167.547826 376.887505 C 167.648163 376.956033 167.758289 376.978059 167.880651 376.960927 C 179.167319 375.166962 187.96025 373.88451 194.259444 373.111123 C 222.512823 369.635774 250.323252 366.826126 277.690731 364.679731 C 333.57589 360.298835 386.123015 357.462265 435.329658 356.170023 C 454.489095 355.670747 472.390652 354.779883 492.749236 355.200841 C 517.060113 355.700117 528.109399 355.499427 554.160262 355.541034 C 563.689813 355.560613 576.660182 354.990362 588.000689 355.541034 C 598.034371 356.025625 609.093446 356.35358 621.180361 356.520005 C 626.26083 356.60077 631.539526 357.180811 637.381086 357.21997 C 637.52792 357.21997 637.664966 357.178363 637.787328 357.097598 C 637.912137 357.014386 638.002685 356.906699 638.058971 356.769643 L 642.449319 346.17962 C 642.495816 346.064591 642.512947 345.942219 642.500711 345.819848 C 642.488475 345.695029 642.446872 345.58 642.378349 345.477208 C 642.309826 345.371968 642.219278 345.293651 642.109153 345.234912 C 642.001474 345.176174 641.884007 345.149252 641.759197 345.149252 C 635.080681 345.210438 625.029869 344.999959 611.609208 344.520263 C 601.489873 344.160491 591.419482 343.920643 581.400484 343.800719 C 560.574477 343.553529 546.356016 343.426263 538.749996 343.418921 C 488.344205 343.367525 439.930468 344.632845 393.511231 347.219777 C 350.824033 349.601125 322.46787 351.612911 308.440294 353.26003 C 305.506054 353.607565 298.790829 354.270818 288.289724 355.24979 C 268.391221 357.109835 248.240651 359.939063 229.000455 362.770737 C 208.220945 365.830023 188.339572 369.980862 167.679977 376.030905 C 167.560062 376.067616 167.467067 376.138591 167.403439 376.246278 C 167.339811 376.353965 167.32268 376.468994 167.3496 376.588918 L 167.359389 376.610945 " transform="matrix(1.596186,0,0,1.596063,-238.703167,-187.544015)"/><path style="fill:none;stroke-width:2;stroke-linecap:butt;stroke-linejoin:miter;stroke:#8690a2;stroke-opacity:1;stroke-miterlimit:4;" d="M 335.259591 276.728943 L 335.220435 294.570696 C 335.220435 294.685725 335.262038 294.78607 335.342797 294.866835 C 335.426003 294.950048 335.523893 294.989206 335.638913 294.989206 L 344.490578 295.011233 C 345.136649 295.011233 345.775378 294.954942 346.409213 294.842361 C 347.040601 294.732226 347.657306 294.563354 348.254432 294.343085 C 348.851558 294.120369 349.416871 293.848705 349.955263 293.525644 C 350.493656 293.202584 350.990446 292.835469 351.448079 292.424301 C 351.905713 292.013133 352.311955 291.565254 352.671699 291.080663 C 353.031443 290.596072 353.337348 290.08456 353.584519 289.546126 C 353.831691 289.007691 354.020128 288.454572 354.147384 287.881874 C 354.274641 287.311623 354.338269 286.73403 354.340716 286.149095 L 354.340716 285.228862 C 354.340716 284.646374 354.279535 284.068781 354.154726 283.49853 C 354.029917 282.925832 353.843927 282.370265 353.599203 281.829384 C 353.352032 281.290949 353.051021 280.779437 352.693724 280.292399 C 352.336427 279.807808 351.930186 279.357481 351.474999 278.946313 C 351.019813 278.532698 350.523023 278.163136 349.987077 277.837628 C 349.451132 277.51212 348.88582 277.238008 348.291141 277.012844 C 347.694014 276.790128 347.079757 276.618808 346.448369 276.503779 C 345.814534 276.38875 345.175805 276.332459 344.529734 276.330012 L 335.680516 276.310432 C 335.563048 276.310432 335.465159 276.352039 335.381953 276.432804 C 335.301194 276.516016 335.259591 276.613914 335.259591 276.728943 " transform="matrix(1.596186,0,0,1.596063,-238.703167,-187.544015)"/><path style="fill:none;stroke-width:2;stroke-linecap:butt;stroke-linejoin:miter;stroke:#8690a2;stroke-opacity:1;stroke-miterlimit:4;" d="M 524.210946 305.469095 C 529.176395 305.510701 531.677474 305.527833 531.709288 305.520491 C 531.848781 305.481332 531.949117 305.39812 532.01764 305.273301 C 532.083715 305.146034 532.095952 305.016321 532.049454 304.879265 L 524.639213 282.380055 C 524.617188 282.311527 524.578032 282.272368 524.519298 282.260131 C 524.480143 282.245446 524.450776 282.240552 524.431198 282.240552 C 524.389595 282.240552 524.350439 282.245446 524.308836 282.260131 C 524.252549 282.272368 524.213394 282.311527 524.188921 282.380055 L 516.389569 304.739761 C 516.343072 304.871922 516.35286 305.001636 516.414041 305.126455 C 516.47767 305.253721 516.575559 305.336934 516.710157 305.380988 C 516.749313 305.393225 519.250392 305.422594 524.210946 305.469095 " transform="matrix(1.596186,0,0,1.596063,-238.703167,-187.544015)"/><path style="fill:none;stroke-width:2;stroke-linecap:butt;stroke-linejoin:miter;stroke:#8690a2;stroke-opacity:1;stroke-miterlimit:4;" d="M 283.591025 305.469095 C 288.556474 305.496017 291.059999 305.503359 291.099155 305.491122 C 291.236201 305.449516 291.336538 305.366303 291.400166 305.239037 C 291.466241 305.114218 291.47603 304.984504 291.429533 304.849896 L 283.931191 282.380055 C 283.906719 282.311527 283.867563 282.272368 283.808829 282.260131 C 283.769673 282.245446 283.740306 282.240552 283.720728 282.240552 C 283.679125 282.240552 283.63997 282.245446 283.600814 282.260131 C 283.54208 282.272368 283.502924 282.311527 283.480899 282.380055 L 275.759859 304.769131 C 275.710914 304.906186 275.718256 305.038348 275.784331 305.165614 C 275.850406 305.295328 275.950743 305.37854 276.090236 305.420146 C 276.124497 305.427489 278.623129 305.442173 283.591025 305.469095 " transform="matrix(1.596186,0,0,1.596063,-238.703167,-187.544015)"/><path style=" stroke:none;fill-rule:nonzero;fill:#e9b308;fill-opacity:1;" d="M 853.855469 219.085938 L 885.457031 130.3125 C 885.542969 130.082031 885.707031 129.964844 885.953125 129.964844 C 886.199219 129.964844 886.363281 130.082031 886.449219 130.3125 L 917.671875 218.75 C 917.699219 218.832031 917.707031 218.914062 917.695312 218.996094 C 917.683594 219.082031 917.652344 219.160156 917.605469 219.230469 C 917.554688 219.296875 917.492188 219.351562 917.417969 219.390625 C 917.339844 219.433594 917.261719 219.453125 917.175781 219.453125 L 896.917969 219.453125 C 896.667969 219.449219 896.5 219.328125 896.425781 219.085938 L 886.75 187.292969 C 886.675781 187.042969 886.507812 186.921875 886.25 186.921875 C 885.992188 186.921875 885.824219 187.042969 885.746094 187.292969 L 875.691406 219.421875 C 875.613281 219.660156 875.449219 219.785156 875.195312 219.789062 L 854.347656 219.789062 C 854.265625 219.785156 854.183594 219.765625 854.109375 219.726562 C 854.03125 219.6875 853.96875 219.632812 853.921875 219.5625 C 853.871094 219.492188 853.839844 219.417969 853.828125 219.332031 C 853.816406 219.246094 853.824219 219.164062 853.855469 219.085938 Z M 853.855469 219.085938 "/><path style=" stroke:none;fill-rule:nonzero;fill:#ffffff;fill-opacity:1;" d="M 462.054688 260.597656 C 462.003906 260.71875 461.925781 260.824219 461.828125 260.910156 C 461.730469 261 461.617188 261.0625 461.492188 261.097656 C 461.367188 261.136719 461.242188 261.144531 461.113281 261.125 C 460.984375 261.101562 460.867188 261.054688 460.761719 260.980469 C 457.835938 258.960938 454.957031 257.292969 452.125 255.984375 C 439.898438 250.289062 425.40625 253.082031 416.292969 263.28125 C 403.539062 277.53125 404.480469 305.335938 420.378906 317.050781 C 432.253906 325.78125 448.855469 323.914062 461.417969 316.476562 C 461.515625 316.417969 461.625 316.382812 461.738281 316.371094 C 461.855469 316.359375 461.964844 316.371094 462.074219 316.410156 C 462.1875 316.449219 462.28125 316.507812 462.363281 316.589844 C 462.445312 316.671875 462.507812 316.765625 462.550781 316.875 L 469.492188 335.421875 C 469.574219 335.648438 469.617188 335.882812 469.613281 336.125 C 469.609375 336.367188 469.5625 336.597656 469.476562 336.820312 C 469.386719 337.046875 469.261719 337.246094 469.101562 337.421875 C 468.9375 337.601562 468.75 337.742188 468.535156 337.847656 C 445.214844 349.59375 416.371094 347.777344 397.96875 327.808594 C 374.425781 302.289062 379.117188 263.230469 406.078125 242.386719 C 412.75 237.214844 420.203125 233.976562 428.4375 232.667969 C 443.125 230.316406 456.648438 232.378906 469.015625 238.859375 C 469.242188 238.980469 469.445312 239.136719 469.613281 239.332031 C 469.785156 239.527344 469.914062 239.746094 470.003906 239.992188 C 470.09375 240.234375 470.132812 240.484375 470.128906 240.746094 C 470.125 241.003906 470.070312 241.253906 469.972656 241.492188 Z M 462.054688 260.597656 "/><path style=" stroke:none;fill-rule:nonzero;fill:#ffffff;fill-opacity:1;" d="M 652.222656 332.246094 C 652.011719 332.0625 651.886719 331.832031 651.855469 331.554688 C 651.820312 331.273438 651.886719 331.023438 652.046875 330.792969 L 663.046875 315.136719 C 663.210938 314.902344 663.4375 314.757812 663.722656 314.707031 C 664.003906 314.652344 664.269531 314.707031 664.515625 314.863281 C 673.246094 320.609375 696.535156 329.53125 702.074219 314.59375 C 704.402344 308.304688 699.710938 302.65625 693.613281 300.421875 C 674.84375 293.542969 654.648438 289.105469 655.335938 264.445312 C 656.054688 239.019531 676.421875 229.777344 699.152344 232.140625 C 707.613281 233.023438 715.332031 235.996094 722.3125 241.0625 C 722.480469 241.1875 722.621094 241.335938 722.734375 241.507812 C 722.847656 241.683594 722.925781 241.871094 722.96875 242.074219 C 723.011719 242.277344 723.015625 242.480469 722.984375 242.683594 C 722.949219 242.882812 722.878906 243.074219 722.777344 243.25 L 713.660156 259.050781 C 713.550781 259.242188 713.410156 259.402344 713.230469 259.53125 C 713.054688 259.660156 712.859375 259.75 712.640625 259.796875 C 712.425781 259.84375 712.210938 259.84375 711.992188 259.800781 C 711.777344 259.757812 711.578125 259.671875 711.394531 259.546875 C 703.03125 253.65625 686.636719 248.789062 680.523438 259.769531 C 676.695312 266.664062 682.503906 271.769531 688.714844 273.988281 C 704.882812 279.734375 722.550781 283.933594 726.8125 301.871094 C 731.15625 320.132812 722.105469 336.859375 703.652344 342.636719 C 687.339844 347.742188 665.761719 343.691406 652.222656 332.246094 Z M 652.222656 332.246094 "/><path style=" stroke:none;fill-rule:nonzero;fill:#ffffff;fill-opacity:1;" d="M 732.433594 332.261719 C 732.214844 332.078125 732.089844 331.84375 732.054688 331.5625 C 732.023438 331.28125 732.089844 331.023438 732.257812 330.792969 L 743.367188 315.199219 C 743.53125 314.964844 743.757812 314.820312 744.042969 314.769531 C 744.324219 314.714844 744.589844 314.769531 744.835938 314.929688 C 753.550781 320.738281 776.804688 329.804688 782.441406 314.878906 C 784.820312 308.609375 780.140625 302.925781 774.0625 300.644531 C 755.304688 293.652344 735.113281 289.089844 735.960938 264.398438 C 736.839844 238.957031 757.285156 229.828125 780.015625 232.332031 C 788.484375 233.269531 796.199219 236.289062 803.160156 241.398438 C 803.324219 241.523438 803.464844 241.671875 803.574219 241.84375 C 803.6875 242.019531 803.761719 242.207031 803.804688 242.410156 C 803.84375 242.609375 803.847656 242.8125 803.8125 243.015625 C 803.78125 243.21875 803.710938 243.40625 803.605469 243.585938 L 794.378906 259.355469 C 794.265625 259.542969 794.121094 259.699219 793.941406 259.828125 C 793.765625 259.957031 793.566406 260.042969 793.351562 260.085938 C 793.136719 260.132812 792.921875 260.132812 792.707031 260.089844 C 792.492188 260.042969 792.292969 259.960938 792.113281 259.832031 C 783.765625 253.894531 767.390625 248.914062 761.210938 259.863281 C 757.332031 266.742188 763.109375 271.898438 769.320312 274.164062 C 785.472656 280.007812 803.128906 284.316406 807.292969 302.304688 C 811.523438 320.609375 802.363281 337.304688 783.84375 342.972656 C 767.484375 347.984375 745.90625 343.800781 732.433594 332.261719 Z M 732.433594 332.261719 "/><path style=" stroke:none;fill-rule:nonzero;fill:#ffffff;fill-opacity:1;" d="M 964.054688 259.210938 C 963.941406 259.382812 963.800781 259.527344 963.628906 259.644531 C 963.460938 259.761719 963.273438 259.839844 963.070312 259.882812 C 962.867188 259.925781 962.664062 259.925781 962.460938 259.886719 C 962.261719 259.847656 962.074219 259.769531 961.898438 259.65625 C 954.960938 255.132812 947.578125 253.054688 939.746094 253.417969 C 932.722656 253.734375 926.035156 256.945312 926.527344 264.8125 C 926.816406 269.375 929.5625 271.003906 933.21875 273.078125 C 933.8125 273.421875 940.191406 275.804688 952.355469 280.230469 C 965.667969 285.066406 975.371094 294.292969 975.722656 309.726562 C 976.203125 331.398438 958.914062 344.136719 938.722656 344.855469 C 923.65625 345.386719 910.113281 341.164062 898.101562 332.183594 C 897.988281 332.097656 897.921875 331.984375 897.902344 331.84375 C 897.878906 331.707031 897.910156 331.578125 897.988281 331.464844 L 909.914062 314.480469 C 910.027344 314.324219 910.179688 314.226562 910.371094 314.191406 C 910.5625 314.15625 910.742188 314.195312 910.902344 314.304688 C 918.425781 319.542969 926.800781 322.398438 936.027344 322.875 C 939.378906 323.050781 945.347656 321.234375 947.964844 318.167969 C 954.527344 310.476562 948.378906 302.796875 940.113281 300.054688 C 924.359375 294.816406 903.625 289.597656 902.457031 268.976562 C 902.085938 262.476562 902.527344 257.421875 903.78125 253.816406 C 907.644531 242.675781 918.914062 234.453125 930.199219 232.699219 C 946.671875 230.160156 963.335938 232.347656 977.078125 242.417969 C 977.179688 242.492188 977.257812 242.582031 977.316406 242.691406 C 977.375 242.796875 977.40625 242.914062 977.410156 243.035156 C 977.417969 243.15625 977.398438 243.273438 977.351562 243.386719 C 977.304688 243.5 977.234375 243.597656 977.144531 243.679688 C 972.324219 248.011719 967.960938 253.1875 964.054688 259.210938 Z M 964.054688 259.210938 "/><path style=" stroke:none;fill-rule:nonzero;fill:#ffffff;fill-opacity:1;" d="M 89.457031 243.136719 L 79.925781 259.65625 C 79.816406 259.847656 79.671875 260.007812 79.496094 260.140625 C 79.316406 260.269531 79.121094 260.359375 78.90625 260.410156 C 78.691406 260.457031 78.476562 260.460938 78.257812 260.417969 C 78.042969 260.375 77.84375 260.292969 77.660156 260.167969 C 69.058594 254.261719 55.15625 249.664062 47.125 258.652344 C 44.847656 261.203125 44.636719 264.800781 46.488281 269.441406 C 46.699219 269.960938 47.035156 270.382812 47.492188 270.703125 C 50.601562 272.871094 53.804688 274.511719 57.101562 275.617188 C 72.34375 280.742188 90.863281 285.863281 93.382812 305.015625 C 95.765625 323.03125 88.605469 335.417969 71.898438 342.171875 C 55.347656 348.859375 32.726562 344.3125 18.554688 333.027344 C 18.316406 332.839844 18.175781 332.59375 18.132812 332.292969 C 18.089844 331.992188 18.15625 331.714844 18.332031 331.464844 L 29.519531 315.535156 C 29.601562 315.417969 29.703125 315.320312 29.824219 315.246094 C 29.945312 315.167969 30.074219 315.117188 30.214844 315.09375 C 30.359375 315.070312 30.496094 315.074219 30.636719 315.105469 C 30.777344 315.136719 30.902344 315.195312 31.019531 315.28125 C 39.433594 321.183594 61.347656 329.132812 67.78125 316.507812 C 71.085938 310.042969 66.855469 303.820312 60.773438 301.410156 C 44.589844 294.992188 23.183594 291.929688 21.300781 270.015625 C 17.851562 229.859375 63.964844 223.21875 89.152344 241.683594 C 89.382812 241.851562 89.527344 242.074219 89.585938 242.351562 C 89.644531 242.632812 89.601562 242.894531 89.457031 243.136719 Z M 89.457031 243.136719 "/><path style=" stroke:none;fill-rule:nonzero;fill:#ffffff;fill-opacity:1;" d="M 328.566406 300.039062 C 328.46875 300.082031 328.386719 300.148438 328.320312 300.234375 C 328.253906 300.316406 328.210938 300.410156 328.1875 300.515625 C 328.167969 300.621094 328.167969 300.726562 328.195312 300.828125 C 328.222656 300.933594 328.273438 301.027344 328.34375 301.105469 C 338.574219 313.09375 346.648438 327.234375 355.207031 341.980469 C 355.324219 342.183594 355.324219 342.386719 355.207031 342.589844 C 355.089844 342.792969 354.914062 342.890625 354.679688 342.890625 L 329.667969 342.890625 C 329.082031 342.890625 328.542969 342.734375 328.046875 342.425781 C 327.550781 342.113281 327.175781 341.695312 326.921875 341.167969 C 321.535156 329.835938 315.40625 319.015625 308.535156 308.703125 C 307.53125 307.203125 306.246094 305.835938 304.671875 304.601562 C 304.351562 304.355469 303.988281 304.234375 303.585938 304.234375 L 296.960938 304.234375 C 296.8125 304.234375 296.683594 304.289062 296.578125 304.394531 C 296.472656 304.5 296.417969 304.628906 296.417969 304.777344 L 296.417969 342.300781 C 296.417969 342.464844 296.359375 342.601562 296.246094 342.71875 C 296.128906 342.832031 295.992188 342.890625 295.828125 342.890625 L 273.195312 342.890625 C 272.9375 342.890625 272.71875 342.800781 272.539062 342.617188 C 272.359375 342.433594 272.269531 342.210938 272.269531 341.949219 L 272.269531 234.390625 C 272.269531 234.191406 272.339844 234.023438 272.476562 233.882812 C 272.617188 233.742188 272.789062 233.671875 272.984375 233.671875 C 290.269531 233.746094 303.394531 233.726562 312.363281 233.609375 C 330.878906 233.386719 347.941406 243.34375 350.128906 263.28125 C 351.980469 280.242188 344.792969 292.492188 328.566406 300.039062 Z M 296.433594 254.132812 L 296.371094 282.609375 C 296.371094 282.792969 296.4375 282.953125 296.566406 283.082031 C 296.699219 283.214844 296.855469 283.277344 297.039062 283.277344 L 311.167969 283.3125 C 312.199219 283.3125 313.21875 283.222656 314.230469 283.042969 C 315.238281 282.867188 316.222656 282.597656 317.175781 282.246094 C 318.128906 281.890625 319.03125 281.457031 319.890625 280.941406 C 320.75 280.425781 321.542969 279.839844 322.273438 279.183594 C 323.003906 278.527344 323.652344 277.8125 324.226562 277.039062 C 324.800781 276.265625 325.289062 275.449219 325.683594 274.589844 C 326.078125 273.730469 326.378906 272.847656 326.582031 271.933594 C 326.785156 271.023438 326.886719 270.101562 326.890625 269.167969 L 326.890625 267.699219 C 326.890625 266.769531 326.792969 265.847656 326.59375 264.9375 C 326.394531 264.023438 326.097656 263.136719 325.707031 262.273438 C 325.3125 261.414062 324.832031 260.597656 324.261719 259.820312 C 323.691406 259.046875 323.042969 258.328125 322.316406 257.671875 C 321.589844 257.011719 320.796875 256.421875 319.941406 255.902344 C 319.085938 255.382812 318.183594 254.945312 317.234375 254.585938 C 316.28125 254.230469 315.300781 253.957031 314.292969 253.773438 C 313.28125 253.589844 312.261719 253.5 311.230469 253.496094 L 297.105469 253.464844 C 296.917969 253.464844 296.761719 253.53125 296.628906 253.660156 C 296.5 253.792969 296.433594 253.949219 296.433594 254.132812 Z M 296.433594 254.132812 "/><path style=" stroke:none;fill-rule:nonzero;fill:#ffffff;fill-opacity:1;" d="M 598.304688 233.753906 C 602.113281 233.761719 605.679688 233.828125 609 233.945312 C 609.3125 233.957031 609.597656 234.050781 609.847656 234.230469 C 610.101562 234.410156 610.28125 234.644531 610.386719 234.933594 L 650.40625 341.949219 C 650.457031 342.078125 650.472656 342.207031 650.457031 342.34375 C 650.445312 342.476562 650.398438 342.601562 650.320312 342.714844 C 650.242188 342.824219 650.144531 342.914062 650.023438 342.976562 C 649.902344 343.039062 649.773438 343.070312 649.636719 343.066406 L 626.621094 343.066406 C 626.320312 343.066406 626.046875 342.980469 625.800781 342.808594 C 625.554688 342.636719 625.382812 342.410156 625.28125 342.125 L 618.113281 321.792969 C 617.957031 321.355469 617.695312 321.003906 617.320312 320.730469 C 616.949219 320.457031 616.53125 320.308594 616.070312 320.292969 C 614.101562 320.207031 608.085938 320.148438 598.019531 320.117188 C 587.941406 320.082031 581.921875 320.101562 579.964844 320.164062 C 579.5 320.179688 579.082031 320.324219 578.703125 320.597656 C 578.328125 320.871094 578.0625 321.226562 577.90625 321.664062 L 570.609375 341.949219 C 570.507812 342.234375 570.328125 342.457031 570.082031 342.628906 C 569.832031 342.796875 569.554688 342.882812 569.253906 342.875 L 546.238281 342.730469 C 546.101562 342.730469 545.972656 342.699219 545.851562 342.636719 C 545.730469 342.570312 545.632812 342.480469 545.558594 342.367188 C 545.480469 342.253906 545.4375 342.128906 545.425781 341.992188 C 545.414062 341.855469 545.433594 341.722656 545.488281 341.597656 L 586.207031 234.855469 C 586.3125 234.566406 586.492188 234.332031 586.746094 234.152344 C 587 233.972656 587.28125 233.875 587.59375 233.863281 C 590.925781 233.78125 594.496094 233.742188 598.304688 233.753906 Z M 598.035156 300.003906 C 605.960938 300.070312 609.953125 300.097656 610.003906 300.085938 C 610.226562 300.023438 610.386719 299.890625 610.496094 299.691406 C 610.601562 299.488281 610.621094 299.28125 610.546875 299.0625 L 598.71875 263.152344 C 598.683594 263.042969 598.621094 262.980469 598.527344 262.960938 C 598.464844 262.9375 598.417969 262.929688 598.386719 262.929688 C 598.320312 262.929688 598.257812 262.9375 598.191406 262.960938 C 598.101562 262.980469 598.039062 263.042969 598 263.152344 L 585.550781 298.839844 C 585.476562 299.050781 585.492188 299.257812 585.589844 299.457031 C 585.691406 299.660156 585.847656 299.792969 586.0625 299.863281 C 586.125 299.882812 590.117188 299.929688 598.035156 300.003906 Z M 598.035156 300.003906 "/><path style=" stroke:none;fill-rule:nonzero;fill:#ffffff;fill-opacity:1;" d="M 886.175781 253.765625 L 843.78125 253.765625 C 843.632812 253.765625 843.503906 253.820312 843.398438 253.925781 C 843.292969 254.03125 843.238281 254.160156 843.238281 254.308594 L 843.238281 276.574219 C 843.238281 276.726562 843.292969 276.851562 843.398438 276.957031 C 843.503906 277.066406 843.632812 277.117188 843.78125 277.117188 L 882.332031 277.117188 C 882.480469 277.117188 882.609375 277.171875 882.714844 277.277344 C 882.820312 277.382812 882.871094 277.511719 882.871094 277.660156 L 882.871094 296.828125 C 882.871094 296.980469 882.820312 297.105469 882.714844 297.210938 C 882.609375 297.320312 882.480469 297.371094 882.332031 297.371094 L 843.941406 297.371094 C 843.792969 297.371094 843.664062 297.425781 843.558594 297.53125 C 843.453125 297.636719 843.398438 297.765625 843.398438 297.914062 L 843.398438 321.34375 C 843.398438 321.496094 843.453125 321.621094 843.558594 321.726562 C 843.664062 321.835938 843.792969 321.886719 843.941406 321.886719 L 887.867188 321.886719 C 888.019531 321.886719 888.148438 321.941406 888.253906 322.046875 C 888.359375 322.152344 888.410156 322.28125 888.410156 322.429688 L 888.410156 342.363281 C 888.410156 342.515625 888.359375 342.644531 888.253906 342.75 C 888.148438 342.855469 888.019531 342.90625 887.867188 342.90625 L 819.839844 342.90625 C 819.691406 342.90625 819.5625 342.855469 819.457031 342.75 C 819.351562 342.644531 819.296875 342.515625 819.296875 342.363281 L 819.296875 234.261719 C 819.296875 234.113281 819.351562 233.984375 819.457031 233.878906 C 819.5625 233.773438 819.691406 233.722656 819.839844 233.722656 L 886.175781 233.722656 C 886.328125 233.722656 886.453125 233.773438 886.5625 233.878906 C 886.667969 233.984375 886.71875 234.113281 886.71875 234.261719 L 886.71875 253.226562 C 886.71875 253.375 886.667969 253.503906 886.5625 253.609375 C 886.453125 253.714844 886.328125 253.765625 886.175781 253.765625 Z M 886.175781 253.765625 "/><path style=" stroke:none;fill-rule:nonzero;fill:#ffffff;fill-opacity:1;" d="M 135.234375 233.785156 C 141.449219 233.761719 154.484375 233.722656 174.34375 233.65625 C 174.527344 233.65625 174.683594 233.722656 174.816406 233.851562 C 174.945312 233.984375 175.011719 234.140625 175.011719 234.328125 L 175.011719 253.765625 C 175.011719 253.980469 174.9375 254.160156 174.785156 254.308594 C 174.628906 254.457031 174.445312 254.535156 174.230469 254.535156 L 148.132812 254.535156 C 147.929688 254.535156 147.757812 254.605469 147.613281 254.75 C 147.46875 254.890625 147.398438 255.066406 147.398438 255.269531 L 147.398438 342.398438 C 147.398438 342.503906 147.363281 342.597656 147.289062 342.671875 C 147.214844 342.75 147.121094 342.792969 147.015625 342.796875 C 146.109375 342.847656 142.296875 342.886719 135.570312 342.90625 C 128.84375 342.929688 125.03125 342.914062 124.125 342.859375 C 124.023438 342.855469 123.933594 342.816406 123.859375 342.742188 C 123.785156 342.667969 123.746094 342.582031 123.742188 342.476562 L 123.214844 255.347656 C 123.214844 255.140625 123.144531 254.964844 122.996094 254.824219 C 122.847656 254.679688 122.671875 254.609375 122.464844 254.613281 L 96.367188 254.773438 C 96.152344 254.773438 95.96875 254.699219 95.816406 254.546875 C 95.664062 254.398438 95.585938 254.21875 95.585938 254.007812 L 95.472656 234.566406 C 95.472656 234.382812 95.539062 234.222656 95.671875 234.09375 C 95.800781 233.960938 95.960938 233.894531 96.144531 233.894531 C 115.992188 233.84375 129.019531 233.804688 135.234375 233.785156 Z M 135.234375 233.785156 "/><path style=" stroke:none;fill-rule:nonzero;fill:#ffffff;fill-opacity:1;" d="M 214.070312 320.003906 C 203.992188 319.992188 197.964844 320.03125 195.984375 320.117188 C 195.527344 320.132812 195.109375 320.277344 194.738281 320.546875 C 194.367188 320.816406 194.101562 321.167969 193.941406 321.601562 L 186.695312 341.933594 C 186.59375 342.214844 186.417969 342.4375 186.171875 342.609375 C 185.925781 342.777344 185.652344 342.863281 185.355469 342.859375 L 162.308594 342.78125 C 162.171875 342.773438 162.046875 342.742188 161.933594 342.675781 C 161.816406 342.609375 161.71875 342.523438 161.644531 342.414062 C 161.570312 342.300781 161.527344 342.179688 161.511719 342.046875 C 161.496094 341.917969 161.511719 341.789062 161.554688 341.664062 L 202.019531 234.695312 C 202.125 234.40625 202.304688 234.171875 202.558594 233.992188 C 202.8125 233.8125 203.09375 233.714844 203.410156 233.703125 C 206.738281 233.609375 210.308594 233.5625 214.117188 233.5625 C 217.929688 233.570312 221.5 233.625 224.828125 233.722656 C 225.140625 233.730469 225.425781 233.828125 225.679688 234.007812 C 225.929688 234.1875 226.109375 234.421875 226.21875 234.710938 L 266.570312 341.710938 C 266.621094 341.835938 266.636719 341.96875 266.621094 342.105469 C 266.605469 342.242188 266.5625 342.367188 266.484375 342.480469 C 266.40625 342.59375 266.308594 342.679688 266.1875 342.746094 C 266.070312 342.808594 265.941406 342.84375 265.804688 342.84375 L 242.753906 342.890625 C 242.457031 342.894531 242.183594 342.808594 241.9375 342.640625 C 241.691406 342.46875 241.519531 342.246094 241.414062 341.964844 L 234.183594 321.632812 C 234.027344 321.195312 233.761719 320.84375 233.390625 320.570312 C 233.019531 320.296875 232.601562 320.148438 232.140625 320.132812 C 230.171875 320.046875 224.148438 320.003906 214.070312 320.003906 Z M 213.960938 300.003906 C 221.886719 300.046875 225.882812 300.058594 225.945312 300.039062 C 226.164062 299.972656 226.324219 299.839844 226.425781 299.636719 C 226.53125 299.4375 226.546875 299.230469 226.472656 299.015625 L 214.503906 263.152344 C 214.464844 263.042969 214.402344 262.980469 214.308594 262.960938 C 214.246094 262.9375 214.199219 262.929688 214.167969 262.929688 C 214.101562 262.929688 214.039062 262.9375 213.976562 262.960938 C 213.882812 262.980469 213.820312 263.042969 213.785156 263.152344 L 201.460938 298.886719 C 201.382812 299.105469 201.394531 299.316406 201.5 299.519531 C 201.605469 299.726562 201.765625 299.859375 201.988281 299.925781 C 202.042969 299.9375 206.03125 299.960938 213.960938 300.003906 Z M 213.960938 300.003906 "/><path style=" stroke:none;fill-rule:nonzero;fill:#ffffff;fill-opacity:1;" d="M 481.785156 233.6875 L 504.402344 233.6875 C 504.605469 233.6875 504.777344 233.761719 504.921875 233.902344 C 505.0625 234.046875 505.136719 234.21875 505.136719 234.421875 L 505.136719 321.152344 C 505.136719 321.355469 505.207031 321.527344 505.351562 321.671875 C 505.492188 321.816406 505.667969 321.886719 505.871094 321.886719 L 540.585938 321.886719 C 540.789062 321.886719 540.960938 321.960938 541.105469 322.101562 C 541.25 322.246094 541.320312 322.417969 541.320312 322.621094 L 541.320312 342.171875 C 541.320312 342.375 541.25 342.550781 541.105469 342.691406 C 540.960938 342.835938 540.789062 342.90625 540.585938 342.90625 L 481.785156 342.90625 C 481.582031 342.90625 481.40625 342.835938 481.265625 342.691406 C 481.121094 342.550781 481.050781 342.375 481.050781 342.171875 L 481.050781 234.421875 C 481.050781 234.21875 481.121094 234.046875 481.265625 233.902344 C 481.40625 233.761719 481.582031 233.6875 481.785156 233.6875 Z M 481.785156 233.6875 "/><path style=" stroke:none;fill-rule:nonzero;fill:#0d2144;fill-opacity:1;" d="M 983.464844 324.855469 C 983.300781 324.992188 983.125 325.003906 982.945312 324.890625 C 982.765625 324.777344 982.699219 324.617188 982.746094 324.410156 C 984.097656 317.214844 984.511719 309.667969 983.992188 301.761719 C 983.960938 301.371094 984.027344 301 984.183594 300.640625 C 984.34375 300.285156 984.578125 299.988281 984.886719 299.75 L 1012.996094 277.546875 C 1013.070312 277.476562 1013.09375 277.394531 1013.058594 277.292969 C 1013.023438 277.195312 1012.953125 277.140625 1012.851562 277.132812 L 969.003906 274.40625 C 968.535156 274.378906 968.199219 274.152344 967.996094 273.730469 C 967.789062 273.308594 967.824219 272.90625 968.09375 272.519531 L 978.996094 256.992188 C 979.195312 256.710938 979.449219 256.492188 979.761719 256.347656 C 980.074219 256.199219 980.40625 256.136719 980.75 256.160156 C 1010.503906 258.609375 1039.890625 258.699219 1068.910156 256.433594 C 1069.113281 256.40625 1069.253906 256.488281 1069.332031 256.679688 C 1069.410156 256.871094 1069.363281 257.03125 1069.195312 257.152344 Z M 983.464844 324.855469 "/><path style=" stroke:none;fill-rule:nonzero;fill:#0d2144;fill-opacity:1;" d="M 824.546875 352.769531 L 799.152344 432.175781 C 799.117188 432.285156 799.144531 432.375 799.238281 432.445312 C 799.332031 432.515625 799.425781 432.515625 799.519531 432.445312 L 884.613281 372.992188 C 885.050781 372.691406 885.53125 372.539062 886.058594 372.539062 C 886.589844 372.539062 887.070312 372.691406 887.503906 372.992188 L 972.5 432.6875 C 972.582031 432.75 972.664062 432.75 972.75 432.6875 C 972.832031 432.625 972.855469 432.542969 972.816406 432.445312 L 947.582031 352.789062 C 953.742188 351.96875 959.46875 350.136719 964.757812 347.296875 C 964.914062 347.210938 965.078125 347.164062 965.253906 347.15625 C 965.433594 347.144531 965.601562 347.171875 965.765625 347.238281 C 965.929688 347.304688 966.070312 347.40625 966.191406 347.535156 C 966.3125 347.664062 966.398438 347.8125 966.449219 347.984375 L 1006.210938 478.714844 C 1006.292969 478.972656 1006.226562 479.183594 1006.007812 479.339844 C 1005.785156 479.5 1005.566406 479.5 1005.347656 479.339844 L 886.464844 395.847656 C 886.167969 395.644531 885.835938 395.539062 885.476562 395.539062 C 885.113281 395.539062 884.78125 395.644531 884.484375 395.847656 L 765.792969 478.765625 C 765.574219 478.910156 765.363281 478.902344 765.152344 478.75 C 764.941406 478.59375 764.875 478.390625 764.945312 478.140625 L 804.164062 352.804688 C 804.222656 352.621094 804.332031 352.472656 804.488281 352.359375 C 804.648438 352.246094 804.828125 352.191406 805.027344 352.195312 Z M 824.546875 352.769531 "/><path style=" stroke:none;fill-rule:nonzero;fill:#e9b308;fill-opacity:1;" d="M 947.582031 352.789062 L 972.816406 432.445312 C 972.855469 432.542969 972.832031 432.625 972.75 432.6875 C 972.664062 432.75 972.582031 432.75 972.5 432.6875 L 887.503906 372.992188 C 887.070312 372.691406 886.589844 372.539062 886.058594 372.539062 C 885.53125 372.539062 885.050781 372.691406 884.613281 372.992188 L 799.519531 432.445312 C 799.425781 432.515625 799.332031 432.515625 799.238281 432.445312 C 799.144531 432.375 799.117188 432.285156 799.152344 432.175781 L 824.546875 352.769531 L 837.015625 352.277344 C 837.113281 352.273438 837.207031 352.292969 837.296875 352.332031 C 837.386719 352.375 837.460938 352.433594 837.523438 352.511719 C 837.582031 352.589844 837.625 352.675781 837.644531 352.769531 C 837.664062 352.867188 837.664062 352.964844 837.636719 353.058594 L 826.703125 391.714844 C 826.625 391.976562 826.699219 392.191406 826.921875 392.351562 C 827.148438 392.511719 827.378906 392.519531 827.613281 392.371094 C 848.234375 378.429688 866.554688 365.855469 882.570312 354.636719 C 885.316406 352.722656 886.878906 352.722656 889.722656 354.71875 C 906.992188 366.878906 925.269531 379.496094 944.550781 392.5625 C 944.769531 392.722656 944.988281 392.722656 945.207031 392.5625 C 945.425781 392.40625 945.496094 392.195312 945.410156 391.9375 L 934.589844 353.265625 C 934.558594 353.15625 934.554688 353.046875 934.574219 352.9375 C 934.597656 352.828125 934.644531 352.726562 934.710938 352.640625 C 934.78125 352.550781 934.867188 352.484375 934.96875 352.4375 C 935.070312 352.390625 935.179688 352.367188 935.292969 352.371094 Z M 947.582031 352.789062 "/><path style=" stroke:none;fill-rule:nonzero;fill:#e9b308;fill-opacity:1;" d="M 28.433594 413.550781 L 28.417969 413.515625 C 28.375 413.324219 28.402344 413.140625 28.503906 412.96875 C 28.605469 412.796875 28.753906 412.683594 28.945312 412.625 C 61.921875 402.96875 93.65625 396.34375 126.824219 391.460938 C 157.535156 386.941406 189.699219 382.425781 221.460938 379.457031 C 238.222656 377.894531 248.941406 376.835938 253.625 376.28125 C 276.015625 373.652344 321.277344 370.441406 389.414062 366.640625 C 463.507812 362.511719 540.785156 360.492188 621.242188 360.574219 C 633.382812 360.585938 656.078125 360.789062 689.320312 361.183594 C 705.3125 361.375 721.386719 361.757812 737.539062 362.332031 C 758.960938 363.097656 775.003906 363.433594 785.664062 363.335938 C 785.863281 363.335938 786.050781 363.378906 786.222656 363.472656 C 786.398438 363.566406 786.542969 363.691406 786.652344 363.859375 C 786.761719 364.023438 786.828125 364.207031 786.847656 364.40625 C 786.867188 364.601562 786.839844 364.796875 786.765625 364.980469 L 779.757812 381.882812 C 779.667969 382.101562 779.523438 382.273438 779.324219 382.40625 C 779.128906 382.535156 778.910156 382.601562 778.675781 382.601562 C 769.351562 382.539062 760.925781 381.613281 752.816406 381.484375 C 733.523438 381.21875 715.871094 380.695312 699.855469 379.921875 C 681.753906 379.042969 661.050781 379.953125 645.839844 379.921875 C 604.257812 379.855469 586.621094 380.175781 547.816406 379.378906 C 515.320312 378.707031 486.746094 380.128906 456.164062 380.925781 C 377.621094 382.988281 293.746094 387.515625 204.542969 394.507812 C 160.859375 397.933594 116.46875 402.417969 71.371094 407.964844 C 61.316406 409.199219 47.28125 411.246094 29.265625 414.109375 C 29.070312 414.136719 28.894531 414.101562 28.734375 413.992188 C 28.574219 413.882812 28.472656 413.738281 28.433594 413.550781 Z M 28.433594 413.550781 "/></g></svg>